Comic Neue Angular Regular.ufo
<glyph name="exclam" format="1">
  <advance width="185"/>
  <unicode hex="0021"/>
  <outline>
    <contour>
      <point x="115" y="159" type="line"/>
      <point x="115" y="692" type="line"/>
      <point x="61" y="682" type="line"/>
      <point x="61" y="148" type="line"/>
    </contour>
    <contour>
      <point x="117" y="92" type="line"/>
      <point x="61" y="82" type="line"/>
      <point x="54" y="0" type="line"/>
      <point x="110" y="10" type="line"/>
    </contour>
  </outline>
</glyph>
<glyph name="numbersign" format="1">
  <advance width="751"/>
  <unicode hex="0023"/>
  <outline>
    <contour>
      <point x="674" y="431" type="line"/>
      <point x="689" y="484" type="line"/>
      <point x="550" y="484" type="line"/>
      <point x="609" y="692" type="line"/>
      <point x="552" y="688" type="line"/>
      <point x="494" y="484" type="line"/>
      <point x="340" y="484" type="line"/>
      <point x="400" y="693" type="line"/>
      <point x="343" y="689" type="line"/>
      <point x="284" y="484" type="line"/>
      <point x="116" y="484" type="line"/>
      <point x="100" y="431" type="line"/>
      <point x="268" y="431" type="line"/>
      <point x="221" y="266" type="line"/>
      <point x="76" y="266" type="line"/>
      <point x="61" y="212" type="line"/>
      <point x="205" y="212" type="line"/>
      <point x="144" y="0" type="line"/>
      <point x="201" y="4" type="line"/>
      <point x="261" y="212" type="line"/>
      <point x="415" y="212" type="line"/>
      <point x="354" y="0" type="line"/>
      <point x="411" y="4" type="line"/>
      <point x="471" y="212" type="line"/>
      <point x="629" y="212" type="line"/>
      <point x="645" y="266" type="line"/>
      <point x="487" y="266" type="line"/>
      <point x="534" y="431" type="line"/>
    </contour>
    <contour>
      <point x="431" y="266" type="line"/>
      <point x="277" y="266" type="line"/>
      <point x="324" y="431" type="line"/>
      <point x="478" y="431" type="line"/>
    </contour>
  </outline>
</glyph>
<glyph name="dollar" format="1">
  <advance width="605"/>
  <unicode hex="0024"/>
  <outline>
    <contour>
      <point x="337" y="631" type="line"/>
      <point x="412" y="630"/>
      <point x="486" y="596"/>
      <point x="486" y="533" type="curve" smooth="yes"/>
      <point x="486" y="526"/>
      <point x="486" y="517"/>
      <point x="485" y="510" type="curve"/>
      <point x="538" y="521" type="line"/>
      <point x="539" y="527"/>
      <point x="539" y="533"/>
      <point x="539" y="539" type="curve" smooth="yes"/>
      <point x="539" y="657"/>
      <point x="407" y="679"/>
      <point x="337" y="681" type="curve"/>
      <point x="337" y="751" type="line"/>
      <point x="284" y="741" type="line"/>
      <point x="284" y="678" type="line"/>
      <point x="205" y="674"/>
      <point x="100" y="629"/>
      <point x="100" y="510" type="curve" smooth="yes"/>
      <point x="100" y="418"/>
      <point x="194" y="366"/>
      <point x="284" y="338" type="curve"/>
      <point x="284" y="54" type="line"/>
      <point x="218" y="61"/>
      <point x="149" y="95"/>
      <point x="125" y="162" type="curve"/>
      <point x="64" y="152" type="line"/>
      <point x="92" y="67"/>
      <point x="178" y="8"/>
      <point x="284" y="0" type="curve"/>
      <point x="284" y="-75" type="line"/>
      <point x="337" y="-65" type="line"/>
      <point x="337" y="1" type="line"/>
      <point x="445" y="13"/>
      <point x="542" y="81"/>
      <point x="542" y="191" type="curve" smooth="yes"/>
      <point x="542" y="279"/>
      <point x="475" y="342"/>
      <point x="337" y="383" type="curve"/>
    </contour>
    <contour>
      <point x="164" y="551"/>
      <point x="186" y="616"/>
      <point x="284" y="628" type="curve"/>
      <point x="284" y="399" type="line"/>
      <point x="198" y="429"/>
      <point x="164" y="462"/>
      <point x="164" y="510" type="curve" smooth="yes"/>
    </contour>
    <contour>
      <point x="479" y="95"/>
      <point x="385" y="63"/>
      <point x="337" y="55" type="curve"/>
      <point x="337" y="322" type="line"/>
      <point x="409" y="297"/>
      <point x="479" y="268"/>
      <point x="479" y="190" type="curve" smooth="yes"/>
    </contour>
  </outline>
</glyph>
<glyph name="quotesingle" format="1">
  <advance width="192"/>
  <unicode hex="0027"/>
  <outline>
    <contour>
      <point x="123" y="510" type="line"/>
      <point x="123" y="690" type="line"/>
      <point x="69" y="680" type="line"/>
      <point x="69" y="500" type="line"/>
    </contour>
  </outline>
</glyph>
<glyph name="parenleft" format="1">
  <advance width="377"/>
  <unicode hex="0028"/>
  <outline>
    <contour>
      <point x="295" y="-79" type="line"/>
      <point x="194" y="18"/>
      <point x="119" y="197"/>
      <point x="119" y="352" type="curve" smooth="yes"/>
      <point x="119" y="515"/>
      <point x="202" y="672"/>
      <point x="313" y="768" type="curve"/>
      <point x="280" y="810" type="line"/>
      <point x="147" y="699"/>
      <point x="65" y="521"/>
      <point x="65" y="352" type="curve" smooth="yes"/>
      <point x="65" y="197"/>
      <point x="134" y="1"/>
      <point x="258" y="-118" type="curve"/>
    </contour>
  </outline>
</glyph>
<glyph name="plus" format="1">
  <advance width="441"/>
  <unicode hex="002B"/>
  <outline>
    <contour>
      <point x="387" y="278" type="line"/>
      <point x="247" y="278" type="line"/>
      <point x="247" y="413" type="line"/>
      <point x="193" y="402" type="line"/>
      <point x="193" y="278" type="line"/>
      <point x="64" y="278" type="line"/>
      <point x="54" y="224" type="line"/>
      <point x="193" y="224" type="line"/>
      <point x="193" y="85" type="line"/>
      <point x="247" y="95" type="line"/>
      <point x="247" y="224" type="line"/>
      <point x="376" y="224" type="line"/>
    </contour>
  </outline>
</glyph>
<glyph name="hyphen" format="1">
  <advance width="442"/>
  <unicode hex="002D"/>
  <outline>
    <contour>
      <point x="363" y="223" type="line"/>
      <point x="373" y="277" type="line"/>
      <point x="81" y="277" type="line"/>
      <point x="71" y="223" type="line"/>
    </contour>
  </outline>
</glyph>
<glyph name="one" format="1">
  <advance width="414"/>
  <unicode hex="0031"/>
  <outline>
    <contour>
      <point x="250" y="54" type="line"/>
      <point x="260" y="681" type="line"/>
      <point x="61" y="502" type="line"/>
      <point x="97" y="462" type="line"/>
      <point x="205" y="559" type="line"/>
      <point x="196" y="54" type="line"/>
      <point x="85" y="54" type="line"/>
      <point x="75" y="0" type="line"/>
      <point x="338" y="0" type="line"/>
      <point x="348" y="54" type="line"/>
    </contour>
  </outline>
</glyph>
<glyph name="two" format="1">
  <advance width="524"/>
  <unicode hex="0032"/>
  <outline>
    <contour>
      <point x="119" y="54" type="line"/>
      <point x="126" y="167"/>
      <point x="173" y="209"/>
      <point x="267" y="272" type="curve" smooth="yes"/>
      <point x="359" y="333"/>
      <point x="453" y="410"/>
      <point x="453" y="510" type="curve" smooth="yes"/>
      <point x="453" y="576"/>
      <point x="410" y="674"/>
      <point x="265" y="674" type="curve" smooth="yes"/>
      <point x="156" y="674"/>
      <point x="88" y="599"/>
      <point x="63" y="566" type="curve"/>
      <point x="100" y="524" type="line"/>
      <point x="108" y="537"/>
      <point x="167" y="620"/>
      <point x="265" y="620" type="curve" smooth="yes"/>
      <point x="319" y="620"/>
      <point x="399" y="591"/>
      <point x="399" y="510" type="curve" smooth="yes"/>
      <point x="399" y="450"/>
      <point x="351" y="393"/>
      <point x="237" y="317" type="curve" smooth="yes"/>
      <point x="125" y="241"/>
      <point x="65" y="182"/>
      <point x="65" y="27" type="curve" smooth="yes"/>
      <point x="65" y="0" type="line"/>
      <point x="453" y="0" type="line"/>
      <point x="463" y="54" type="line"/>
    </contour>
  </outline>
</glyph>
<glyph name="six" format="1">
  <advance width="546"/>
  <unicode hex="0036"/>
  <outline>
    <contour>
      <point x="352" y="684" type="line"/>
      <point x="174" y="608"/>
      <point x="61" y="447"/>
      <point x="61" y="245" type="curve" smooth="yes"/>
      <point x="61" y="110"/>
      <point x="128" y="-5"/>
      <point x="279" y="-5" type="curve" smooth="yes"/>
      <point x="333" y="-5"/>
      <point x="480" y="36"/>
      <point x="480" y="240" type="curve" smooth="yes"/>
      <point x="480" y="436"/>
      <point x="309" y="442"/>
      <point x="289" y="442" type="curve" smooth="yes"/>
      <point x="226" y="442"/>
      <point x="176" y="422"/>
      <point x="139" y="400" type="curve"/>
      <point x="175" y="503"/>
      <point x="275" y="596"/>
      <point x="369" y="634" type="curve"/>
    </contour>
    <contour>
      <point x="137" y="337"/>
      <point x="196" y="389"/>
      <point x="289" y="389" type="curve" smooth="yes"/>
      <point x="322" y="389"/>
      <point x="428" y="378"/>
      <point x="428" y="240" type="curve" smooth="yes"/>
      <point x="428" y="83"/>
      <point x="321" y="48"/>
      <point x="279" y="48" type="curve" smooth="yes"/>
      <point x="203" y="48"/>
      <point x="113" y="82"/>
      <point x="113" y="245" type="curve" smooth="yes"/>
      <point x="113" y="270"/>
      <point x="114" y="295"/>
      <point x="118" y="318" type="curve"/>
    </contour>
  </outline>
</glyph>
<glyph name="nine" format="1">
  <advance width="546"/>
  <unicode hex="0039"/>
  <outline>
    <contour>
      <point x="189" y="-3" type="line"/>
      <point x="329" y="49"/>
      <point x="480" y="205"/>
      <point x="480" y="436" type="curve" smooth="yes"/>
      <point x="480" y="573"/>
      <point x="414" y="686"/>
      <point x="264" y="686" type="curve" smooth="yes"/>
      <point x="154" y="686"/>
      <point x="61" y="589"/>
      <point x="61" y="441" type="curve" smooth="yes"/>
      <point x="61" y="245"/>
      <point x="232" y="239"/>
      <point x="251" y="239" type="curve" smooth="yes"/>
      <point x="315" y="239"/>
      <point x="365" y="259"/>
      <point x="401" y="281" type="curve"/>
      <point x="362" y="178"/>
      <point x="276" y="89"/>
      <point x="172" y="47" type="curve"/>
    </contour>
    <contour>
      <point x="404" y="344"/>
      <point x="344" y="292"/>
      <point x="251" y="292" type="curve" smooth="yes"/>
      <point x="219" y="292"/>
      <point x="113" y="303"/>
      <point x="113" y="441" type="curve" smooth="yes"/>
      <point x="113" y="598"/>
      <point x="220" y="633"/>
      <point x="261" y="633" type="curve" smooth="yes"/>
      <point x="337" y="633"/>
      <point x="428" y="599"/>
      <point x="428" y="436" type="curve" smooth="yes"/>
      <point x="428" y="411"/>
      <point x="426" y="386"/>
      <point x="423" y="363" type="curve"/>
    </contour>
  </outline>
</glyph>
<glyph name="equal" format="1">
  <advance width="505"/>
  <unicode hex="003D"/>
  <outline>
    <contour>
      <point x="420" y="299" type="line"/>
      <point x="430" y="353" type="line"/>
      <point x="87" y="353" type="line"/>
      <point x="77" y="299" type="line"/>
    </contour>
    <contour>
      <point x="420" y="146" type="line"/>
      <point x="430" y="199" type="line"/>
      <point x="87" y="199" type="line"/>
      <point x="77" y="146" type="line"/>
    </contour>
  </outline>
</glyph>
<glyph name="at" format="1">
  <advance width="828"/>
  <unicode hex="0040"/>
  <outline>
    <contour>
      <point x="296" y="-42"/>
      <point x="122" y="60"/>
      <point x="122" y="252" type="curve" smooth="yes"/>
      <point x="122" y="456"/>
      <point x="277" y="563"/>
      <point x="431" y="563" type="curve" smooth="yes"/>
      <point x="615" y="563"/>
      <point x="711" y="423"/>
      <point x="711" y="285" type="curve" smooth="yes"/>
      <point x="711" y="209"/>
      <point x="678" y="148"/>
      <point x="606" y="148" type="curve" smooth="yes"/>
      <point x="546" y="148"/>
      <point x="511" y="183"/>
      <point x="511" y="227" type="curve" smooth="yes"/>
      <point x="511" y="240"/>
      <point x="513" y="254"/>
      <point x="518" y="270" type="curve"/>
      <point x="468" y="288" type="line"/>
      <point x="454" y="255"/>
      <point x="404" y="161"/>
      <point x="349" y="161" type="curve" smooth="yes"/>
      <point x="315" y="161"/>
      <point x="287" y="186"/>
      <point x="287" y="237" type="curve" smooth="yes"/>
      <point x="287" y="306"/>
      <point x="337" y="375"/>
      <point x="404" y="375" type="curve" smooth="yes"/>
      <point x="427" y="375"/>
      <point x="450" y="366"/>
      <point x="473" y="350" type="curve"/>
      <point x="505" y="393" type="line"/>
      <point x="473" y="417"/>
      <point x="438" y="428"/>
      <point x="404" y="428" type="curve" smooth="yes"/>
      <point x="306" y="428"/>
      <point x="234" y="336"/>
      <point x="234" y="237" type="curve" smooth="yes"/>
      <point x="234" y="155"/>
      <point x="281" y="108"/>
      <point x="349" y="108" type="curve" smooth="yes"/>
      <point x="398" y="108"/>
      <point x="438" y="142"/>
      <point x="466" y="179" type="curve"/>
      <point x="483" y="129"/>
      <point x="546" y="95"/>
      <point x="605" y="94" type="curve" smooth="yes"/>
      <point x="707" y="94"/>
      <point x="765" y="180"/>
      <point x="765" y="285" type="curve" smooth="yes"/>
      <point x="765" y="474"/>
      <point x="618" y="617"/>
      <point x="431" y="617" type="curve" smooth="yes"/>
      <point x="224" y="617"/>
      <point x="68" y="461"/>
      <point x="68" y="252" type="curve" smooth="yes"/>
      <point x="68" y="62"/>
      <point x="229" y="-95"/>
      <point x="422" y="-95" type="curve" smooth="yes"/>
      <point x="570" y="-95"/>
      <point x="663" y="-10"/>
      <point x="673" y="-1" type="curve"/>
      <point x="620" y="24" type="line"/>
      <point x="590" y="2"/>
      <point x="520" y="-42"/>
      <point x="422" y="-42" type="curve" smooth="yes"/>
    </contour>
  </outline>
</glyph>
<glyph name="I" format="1">
  <advance width="437"/>
  <unicode hex="0049"/>
  <outline>
    <contour>
      <point x="367" y="625" type="line"/>
      <point x="377" y="681" type="line"/>
      <point x="70" y="681" type="line"/>
      <point x="60" y="625" type="line"/>
      <point x="193" y="625" type="line"/>
      <point x="193" y="56" type="line"/>
      <point x="70" y="56" type="line"/>
      <point x="60" y="0" type="line"/>
      <point x="367" y="0" type="line"/>
      <point x="377" y="56" type="line"/>
      <point x="249" y="56" type="line"/>
      <point x="249" y="625" type="line"/>
    </contour>
  </outline>
</glyph>
<glyph name="J" format="1">
  <advance width="469"/>
  <unicode hex="004A"/>
  <outline>
    <contour>
      <point x="188" y="679" type="line"/>
      <point x="188" y="622" type="line"/>
      <point x="342" y="622" type="line"/>
      <point x="342" y="162" type="line" smooth="yes"/>
      <point x="342" y="98"/>
      <point x="296" y="52"/>
      <point x="224" y="52" type="curve" smooth="yes"/>
      <point x="154" y="52"/>
      <point x="106" y="99"/>
      <point x="106" y="162" type="curve" smooth="yes"/>
      <point x="106" y="207" type="line"/>
      <point x="50" y="197" type="line"/>
      <point x="50" y="162" type="line" smooth="yes"/>
      <point x="50" y="69"/>
      <point x="123" y="1"/>
      <point x="224" y="1" type="curve" smooth="yes"/>
      <point x="327" y="1"/>
      <point x="398" y="67"/>
      <point x="398" y="162" type="curve" smooth="yes"/>
      <point x="398" y="622" type="line"/>
      <point x="449" y="622" type="line"/>
      <point x="449" y="679" type="line"/>
    </contour>
  </outline>
</glyph>
<glyph name="K" format="1">
  <advance width="577"/>
  <unicode hex="004B"/>
  <outline>
    <contour>
      <point x="527" y="43" type="line"/>
      <point x="140" y="336" type="line"/>
      <point x="501" y="639" type="line"/>
      <point x="466" y="680" type="line"/>
      <point x="119" y="388" type="line"/>
      <point x="119" y="681" type="line"/>
      <point x="65" y="671" type="line"/>
      <point x="65" y="0" type="line"/>
      <point x="119" y="10" type="line"/>
      <point x="119" y="285" type="line"/>
      <point x="494" y="0" type="line"/>
    </contour>
  </outline>
</glyph>
<glyph name="M" format="1">
  <advance width="865"/>
  <unicode hex="004D"/>
  <outline>
    <contour>
      <point x="221" y="557" type="line"/>
      <point x="380" y="0" type="line"/>
      <point x="456" y="10" type="line"/>
      <point x="636" y="573" type="line"/>
      <point x="758" y="0" type="line"/>
      <point x="815" y="10" type="line"/>
      <point x="669" y="681" type="line"/>
      <point x="612" y="671" type="line"/>
      <point x="418" y="65" type="line"/>
      <point x="243" y="681" type="line"/>
      <point x="190" y="671" type="line"/>
      <point x="50" y="0" type="line"/>
      <point x="106" y="10" type="line"/>
    </contour>
  </outline>
</glyph>
<glyph name="N" format="1">
  <advance width="615"/>
  <unicode hex="004E"/>
  <outline>
    <contour>
      <point x="497" y="671" type="line"/>
      <point x="497" y="88" type="line"/>
      <point x="124" y="681" type="line"/>
      <point x="65" y="664" type="line"/>
      <point x="66" y="1" type="line"/>
      <point x="119" y="12" type="line"/>
      <point x="119" y="588" type="line"/>
      <point x="486" y="0" type="line"/>
      <point x="550" y="13" type="line"/>
      <point x="550" y="681" type="line"/>
    </contour>
  </outline>
</glyph>
<glyph name="Q" format="1">
  <advance width="721"/>
  <unicode hex="0051"/>
  <outline>
    <contour>
      <point x="548" y="92" type="line"/>
      <point x="618" y="160"/>
      <point x="662" y="258"/>
      <point x="662" y="366" type="curve" smooth="yes"/>
      <point x="662" y="536"/>
      <point x="543" y="679"/>
      <point x="380" y="679" type="curve" smooth="yes"/>
      <point x="204" y="679"/>
      <point x="51" y="511"/>
      <point x="51" y="312" type="curve" smooth="yes"/>
      <point x="51" y="140"/>
      <point x="171" y="-1"/>
      <point x="333" y="-1" type="curve" smooth="yes"/>
      <point x="395" y="-1"/>
      <point x="455" y="20"/>
      <point x="506" y="57" type="curve"/>
      <point x="647" y="-35" type="line"/>
      <point x="671" y="12" type="line"/>
    </contour>
    <contour>
      <point x="397" y="193" type="line"/>
      <point x="347" y="163" type="line"/>
      <point x="460" y="92" type="line"/>
      <point x="422" y="67"/>
      <point x="378" y="52"/>
      <point x="333" y="52" type="curve" smooth="yes"/>
      <point x="206" y="52"/>
      <point x="112" y="166"/>
      <point x="112" y="312" type="curve" smooth="yes"/>
      <point x="112" y="484"/>
      <point x="233" y="625"/>
      <point x="372" y="625" type="curve" smooth="yes"/>
      <point x="506" y="625"/>
      <point x="602" y="494"/>
      <point x="602" y="359" type="curve" smooth="yes"/>
      <point x="602" y="268"/>
      <point x="560" y="182"/>
      <point x="503" y="126" type="curve"/>
    </contour>
  </outline>
</glyph>
<glyph name="V" format="1">
  <advance width="540"/>
  <unicode hex="0056"/>
  <outline>
    <contour>
      <point x="253" y="86" type="line"/>
      <point x="63" y="679" type="line"/>
      <point x="10" y="659" type="line"/>
      <point x="222" y="0" type="line"/>
      <point x="285" y="11" type="line"/>
      <point x="530" y="659" type="line"/>
      <point x="478" y="680" type="line"/>
    </contour>
  </outline>
</glyph>
<glyph name="W" format="1">
  <advance width="878"/>
  <unicode hex="0057"/>
  <outline>
    <contour>
      <point x="868" y="680" type="line"/>
      <point x="807" y="669" type="line"/>
      <point x="611" y="92" type="line"/>
      <point x="464" y="681" type="line"/>
      <point x="405" y="670" type="line"/>
      <point x="235" y="100" type="line"/>
      <point x="64" y="681" type="line"/>
      <point x="10" y="671" type="line"/>
      <point x="207" y="0" type="line"/>
      <point x="265" y="11" type="line"/>
      <point x="435" y="579" type="line"/>
      <point x="580" y="0" type="line"/>
      <point x="640" y="11" type="line"/>
    </contour>
  </outline>
</glyph>
<glyph name="Y" format="1">
  <advance width="628"/>
  <unicode hex="0059"/>
  <outline>
    <contour>
      <point x="322" y="266" type="line"/>
      <point x="82" y="677" type="line"/>
      <point x="20" y="677" type="line"/>
      <point x="290" y="214" type="line"/>
      <point x="164" y="0" type="line"/>
      <point x="226" y="0" type="line"/>
      <point x="628" y="677" type="line"/>
      <point x="566" y="677" type="line"/>
    </contour>
  </outline>
</glyph>
<glyph name="f" format="1">
  <advance width="332"/>
  <unicode hex="0066"/>
  <outline>
    <contour>
      <point x="322" y="693" type="line"/>
      <point x="166" y="701"/>
      <point x="95" y="653"/>
      <point x="95" y="502" type="curve"/>
      <point x="19" y="502" type="line"/>
      <point x="10" y="451" type="line"/>
      <point x="95" y="451" type="line"/>
      <point x="95" y="0" type="line"/>
      <point x="151" y="10" type="line"/>
      <point x="151" y="451" type="line"/>
      <point x="275" y="451" type="line"/>
      <point x="287" y="502" type="line"/>
      <point x="156" y="502" type="line"/>
      <point x="156" y="604"/>
      <point x="180" y="643"/>
      <point x="299" y="640" type="curve"/>
    </contour>
  </outline>
</glyph>
<glyph name="g" format="1">
  <advance width="522"/>
  <unicode hex="0067"/>
  <outline>
    <contour>
      <point x="457" y="508" type="line"/>
      <point x="400" y="499" type="line"/>
      <point x="400" y="469" type="line"/>
      <point x="374" y="484"/>
      <point x="335" y="501"/>
      <point x="288" y="501" type="curve" smooth="yes"/>
      <point x="144" y="501"/>
      <point x="51" y="366"/>
      <point x="51" y="237" type="curve" smooth="yes"/>
      <point x="51" y="100"/>
      <point x="135" y="0"/>
      <point x="249" y="0" type="curve" smooth="yes"/>
      <point x="307" y="0"/>
      <point x="356" y="31"/>
      <point x="392" y="79" type="curve"/>
      <point x="390" y="18" type="line" smooth="yes"/>
      <point x="389" y="-25"/>
      <point x="375" y="-129"/>
      <point x="244" y="-129" type="curve" smooth="yes"/>
      <point x="201" y="-129"/>
      <point x="157" y="-122"/>
      <point x="129" y="-116" type="curve"/>
      <point x="117" y="-171" type="line"/>
      <point x="148" y="-178"/>
      <point x="196" y="-185"/>
      <point x="244" y="-185" type="curve" smooth="yes"/>
      <point x="369" y="-185"/>
      <point x="443" y="-112"/>
      <point x="446" y="19" type="curve" smooth="yes"/>
    </contour>
    <contour>
      <point x="396" y="268" type="line" smooth="yes"/>
      <point x="396" y="105"/>
      <point x="314" y="54"/>
      <point x="244" y="53" type="curve" smooth="yes"/>
      <point x="142" y="53"/>
      <point x="100" y="167"/>
      <point x="100" y="237" type="curve" smooth="yes"/>
      <point x="100" y="348"/>
      <point x="181" y="446"/>
      <point x="293" y="446" type="curve" smooth="yes"/>
      <point x="333" y="446"/>
      <point x="372" y="431"/>
      <point x="396" y="413" type="curve"/>
    </contour>
  </outline>
</glyph>
<glyph name="h" format="1">
  <advance width="504"/>
  <unicode hex="0068"/>
  <outline>
    <contour>
      <point x="121" y="196" type="line" smooth="yes"/>
      <point x="121" y="230"/>
      <point x="124" y="260"/>
      <point x="136" y="285" type="curve" smooth="yes"/>
      <point x="152" y="319"/>
      <point x="233" y="451"/>
      <point x="319" y="451" type="curve" smooth="yes"/>
      <point x="382" y="451"/>
      <point x="399" y="337"/>
      <point x="399" y="136" type="curve" smooth="yes"/>
      <point x="399" y="69"/>
      <point x="398" y="14"/>
      <point x="397" y="0" type="curve"/>
      <point x="451" y="10" type="line"/>
      <point x="452" y="28"/>
      <point x="453" y="78"/>
      <point x="453" y="142" type="curve" smooth="yes"/>
      <point x="453" y="382"/>
      <point x="424" y="505"/>
      <point x="319" y="505" type="curve" smooth="yes"/>
      <point x="235" y="505"/>
      <point x="157" y="416"/>
      <point x="121" y="336" type="curve"/>
      <point x="121" y="692" type="line"/>
      <point x="65" y="681" type="line"/>
      <point x="65" y="0" type="line"/>
      <point x="121" y="10" type="line"/>
    </contour>
  </outline>
</glyph>
<glyph name="k" format="1">
  <advance width="494"/>
  <unicode hex="006B"/>
  <outline>
    <contour>
      <point x="303" y="334"/>
      <point x="404" y="445"/>
      <point x="448" y="502" type="curve"/>
      <point x="404" y="534" type="line"/>
      <point x="326" y="432"/>
      <point x="180" y="291"/>
      <point x="123" y="254" type="curve"/>
      <point x="122" y="692" type="line"/>
      <point x="65" y="681" type="line"/>
      <point x="67" y="0" type="line"/>
      <point x="124" y="10" type="line"/>
      <point x="123" y="201" type="line"/>
      <point x="146" y="214"/>
      <point x="177" y="235"/>
      <point x="216" y="264" type="curve"/>
      <point x="262" y="214"/>
      <point x="351" y="107"/>
      <point x="421" y="0" type="curve"/>
      <point x="464" y="37" type="line"/>
      <point x="359" y="173"/>
      <point x="266" y="290"/>
      <point x="258" y="298" type="curve"/>
    </contour>
  </outline>
</glyph>
<glyph name="l" format="1">
  <advance width="226"/>
  <unicode hex="006C"/>
  <outline>
    <contour>
      <point x="85" y="681" type="line"/>
      <point x="85" y="0" type="line"/>
      <point x="141" y="10" type="line"/>
      <point x="141" y="692" type="line"/>
    </contour>
  </outline>
</glyph>
<glyph name="p" format="1">
  <advance width="518"/>
  <unicode hex="0070"/>
  <outline>
    <contour>
      <point x="220" y="496"/>
      <point x="162" y="465"/>
      <point x="121" y="428" type="curve"/>
      <point x="121" y="499" type="line"/>
      <point x="65" y="488" type="line"/>
      <point x="65" y="-193" type="line"/>
      <point x="121" y="-183" type="line"/>
      <point x="121" y="35" type="line"/>
      <point x="152" y="22"/>
      <point x="201" y="7"/>
      <point x="253" y="7" type="curve" smooth="yes"/>
      <point x="410" y="7"/>
      <point x="468" y="138"/>
      <point x="468" y="270" type="curve" smooth="yes"/>
      <point x="468" y="374"/>
      <point x="418" y="492"/>
      <point x="308" y="496" type="curve"/>
    </contour>
    <contour>
      <point x="197" y="63"/>
      <point x="140" y="88"/>
      <point x="121" y="97" type="curve"/>
      <point x="121" y="360" type="line"/>
      <point x="138" y="385"/>
      <point x="195" y="447"/>
      <point x="298" y="447" type="curve" smooth="yes"/>
      <point x="394" y="447"/>
      <point x="419" y="340"/>
      <point x="419" y="270" type="curve" smooth="yes"/>
      <point x="419" y="159"/>
      <point x="375" y="63"/>
      <point x="256" y="63" type="curve" smooth="yes"/>
    </contour>
  </outline>
</glyph>
<glyph name="q" format="1">
  <advance width="523"/>
  <unicode hex="0071"/>
  <outline>
    <contour>
      <point x="402" y="490" type="line"/>
      <point x="376" y="494"/>
      <point x="350" y="496"/>
      <point x="327" y="496" type="curve" smooth="yes"/>
      <point x="168" y="496"/>
      <point x="50" y="392"/>
      <point x="50" y="210" type="curve" smooth="yes"/>
      <point x="50" y="87"/>
      <point x="138" y="-10"/>
      <point x="257" y="-10" type="curve" smooth="yes"/>
      <point x="328" y="-10"/>
      <point x="360" y="12"/>
      <point x="387" y="59" type="curve"/>
      <point x="378" y="-196" type="line"/>
      <point x="434" y="-186" type="line"/>
      <point x="458" y="508" type="line"/>
      <point x="403" y="510" type="line"/>
    </contour>
    <contour>
      <point x="392" y="163" type="line" smooth="yes"/>
      <point x="389" y="85"/>
      <point x="336" y="42"/>
      <point x="256" y="42" type="curve" smooth="yes"/>
      <point x="168" y="42"/>
      <point x="101" y="110"/>
      <point x="101" y="208" type="curve" smooth="yes"/>
      <point x="101" y="362"/>
      <point x="194" y="445"/>
      <point x="327" y="445" type="curve" smooth="yes"/>
      <point x="349" y="445"/>
      <point x="379" y="442"/>
      <point x="401" y="438" type="curve"/>
    </contour>
  </outline>
</glyph>
<glyph name="v" format="1">
  <advance width="447"/>
  <unicode hex="0076"/>
  <outline>
    <contour>
      <point x="437" y="480" type="line"/>
      <point x="385" y="500" type="line"/>
      <point x="223" y="77" type="line"/>
      <point x="63" y="500" type="line"/>
      <point x="10" y="479" type="line"/>
      <point x="197" y="0" type="line"/>
      <point x="255" y="12" type="line"/>
    </contour>
  </outline>
</glyph>
<glyph name="x" format="1">
  <advance width="471"/>
  <unicode hex="0078"/>
  <outline>
    <contour>
      <point x="428" y="28" type="line"/>
      <point x="268" y="257" type="line"/>
      <point x="444" y="468" type="line"/>
      <point x="403" y="504" type="line"/>
      <point x="234" y="302" type="line"/>
      <point x="95" y="504" type="line"/>
      <point x="51" y="472" type="line"/>
      <point x="199" y="259" type="line"/>
      <point x="9" y="32" type="line"/>
      <point x="51" y="-4" type="line"/>
      <point x="231" y="213" type="line"/>
      <point x="383" y="-4" type="line"/>
    </contour>
  </outline>
</glyph>
<glyph name="y" format="1">
  <advance width="500"/>
  <unicode hex="0079"/>
  <outline>
    <contour>
      <point x="429" y="500" type="line"/>
      <point x="256" y="127" type="line"/>
      <point x="70" y="499" type="line"/>
      <point x="20" y="474" type="line"/>
      <point x="226" y="61" type="line"/>
      <point x="117" y="-173" type="line"/>
      <point x="168" y="-197" type="line"/>
      <point x="480" y="476" type="line"/>
    </contour>
  </outline>
</glyph>
<glyph name="z" format="1">
  <advance width="453"/>
  <unicode hex="007A"/>
  <outline>
    <contour>
      <point x="406" y="0" type="line"/>
      <point x="416" y="56" type="line"/>
      <point x="105" y="56" type="line"/>
      <point x="423" y="457" type="line"/>
      <point x="401" y="502" type="line"/>
      <point x="62" y="502" type="line"/>
      <point x="52" y="446" type="line"/>
      <point x="348" y="446" type="line"/>
      <point x="30" y="46" type="line"/>
      <point x="52" y="0" type="line"/>
    </contour>
  </outline>
</glyph>
<glyph name="bar" format="1">
  <advance width="255"/>
  <unicode hex="007C"/>
  <outline>
    <contour>
      <point x="155" y="-61" type="line"/>
      <point x="155" y="755" type="line"/>
      <point x="101" y="745" type="line"/>
      <point x="101" y="-71" type="line"/>
    </contour>
  </outline>
</glyph>
<glyph name="exclamdown" format="1">
  <advance width="185"/>
  <unicode hex="00A1"/>
  <outline>
    <contour>
      <point x="56" y="341" type="line"/>
      <point x="56" y="-192" type="line"/>
      <point x="110" y="-182" type="line"/>
      <point x="110" y="352" type="line"/>
    </contour>
    <contour>
      <point x="54" y="408" type="line"/>
      <point x="110" y="418" type="line"/>
      <point x="117" y="500" type="line"/>
      <point x="61" y="490" type="line"/>
    </contour>
  </outline>
</glyph>
<glyph name="cent" format="1">
  <advance width="506"/>
  <unicode hex="00A2"/>
  <outline>
    <contour>
      <point x="274" y="97" type="line"/>
      <point x="354" y="100"/>
      <point x="419" y="138"/>
      <point x="456" y="194" type="curve"/>
      <point x="417" y="234" type="line"/>
      <point x="391" y="186"/>
      <point x="336" y="149"/>
      <point x="275" y="149" type="curve"/>
      <point x="285" y="547" type="line"/>
      <point x="327" y="544"/>
      <point x="364" y="523"/>
      <point x="386" y="488" type="curve"/>
      <point x="426" y="527" type="line"/>
      <point x="394" y="570"/>
      <point x="344" y="597"/>
      <point x="287" y="599" type="curve"/>
      <point x="289" y="688" type="line"/>
      <point x="242" y="670" type="line"/>
      <point x="240" y="595" type="line"/>
      <point x="120" y="559"/>
      <point x="51" y="427"/>
      <point x="51" y="314" type="curve" smooth="yes"/>
      <point x="51" y="217"/>
      <point x="108" y="133"/>
      <point x="228" y="101" type="curve"/>
      <point x="225" y="0" type="line"/>
      <point x="272" y="17" type="line"/>
    </contour>
    <contour>
      <point x="229" y="154" type="line"/>
      <point x="143" y="183"/>
      <point x="104" y="247"/>
      <point x="104" y="316" type="curve" smooth="yes"/>
      <point x="104" y="370"/>
      <point x="139" y="501"/>
      <point x="239" y="540" type="curve"/>
    </contour>
  </outline>
</glyph>
<glyph name="logicalnot" format="1">
  <advance width="516"/>
  <unicode hex="00AC"/>
  <outline>
    <contour>
      <point x="395" y="114" type="line"/>
      <point x="446" y="131" type="line"/>
      <point x="447" y="316" type="line"/>
      <point x="81" y="316" type="line"/>
      <point x="71" y="265" type="line"/>
      <point x="396" y="265" type="line"/>
    </contour>
  </outline>
</glyph>
<glyph name="uni00AD" format="1">
  <advance width="442"/>
  <unicode hex="00AD"/>
  <outline>
    <contour>
      <point x="373" y="281" type="line"/>
      <point x="81" y="281" type="line"/>
      <point x="71" y="227" type="line"/>
      <point x="363" y="227" type="line"/>
    </contour>
  </outline>
</glyph>
<glyph name="registered" format="1">
  <advance width="576"/>
  <unicode hex="00AE"/>
  <outline>
    <contour>
      <point x="410" y="236"/>
      <point x="510" y="338"/>
      <point x="510" y="463" type="curve" smooth="yes"/>
      <point x="510" y="588"/>
      <point x="410" y="690"/>
      <point x="288" y="690" type="curve" smooth="yes"/>
      <point x="166" y="690"/>
      <point x="66" y="588"/>
      <point x="66" y="463" type="curve" smooth="yes"/>
      <point x="66" y="338"/>
      <point x="166" y="236"/>
      <point x="288" y="236" type="curve" smooth="yes"/>
    </contour>
    <contour>
      <point x="385" y="644"/>
      <point x="464" y="563"/>
      <point x="464" y="463" type="curve" smooth="yes"/>
      <point x="464" y="363"/>
      <point x="385" y="282"/>
      <point x="288" y="282" type="curve" smooth="yes"/>
      <point x="191" y="282"/>
      <point x="112" y="363"/>
      <point x="112" y="463" type="curve" smooth="yes"/>
      <point x="112" y="563"/>
      <point x="191" y="644"/>
      <point x="288" y="644" type="curve" smooth="yes"/>
    </contour>
    <contour>
      <point x="304" y="447" type="line"/>
      <point x="351" y="457"/>
      <point x="404" y="478"/>
      <point x="404" y="520" type="curve" smooth="yes"/>
      <point x="404" y="563"/>
      <point x="363" y="590"/>
      <point x="289" y="590" type="curve" smooth="yes"/>
      <point x="214" y="590"/>
      <point x="214" y="579"/>
      <point x="211" y="562" type="curve" smooth="yes"/>
      <point x="178" y="360" type="line"/>
      <point x="226" y="365" type="line"/>
      <point x="238" y="437" type="line"/>
      <point x="357" y="355" type="line"/>
      <point x="388" y="389" type="line"/>
    </contour>
    <contour>
      <point x="255" y="543" type="line"/>
      <point x="264" y="544"/>
      <point x="274" y="544"/>
      <point x="283" y="544" type="curve" smooth="yes"/>
      <point x="318" y="544"/>
      <point x="358" y="538"/>
      <point x="358" y="520" type="curve" smooth="yes"/>
      <point x="358" y="510"/>
      <point x="308" y="491"/>
      <point x="246" y="485" type="curve"/>
    </contour>
  </outline>
</glyph>
<glyph name="plusminus" format="1">
  <advance width="435"/>
  <unicode hex="00B1"/>
  <outline>
    <contour>
      <point x="381" y="324" type="line"/>
      <point x="244" y="324" type="line"/>
      <point x="244" y="456" type="line"/>
      <point x="190" y="445" type="line"/>
      <point x="190" y="324" type="line"/>
      <point x="64" y="324" type="line"/>
      <point x="54" y="270" type="line"/>
      <point x="190" y="270" type="line"/>
      <point x="190" y="134" type="line"/>
      <point x="244" y="144" type="line"/>
      <point x="244" y="270" type="line"/>
      <point x="370" y="270" type="line"/>
    </contour>
    <contour>
      <point x="67" y="0" type="line"/>
      <point x="356" y="0" type="line"/>
      <point x="366" y="52" type="line"/>
      <point x="77" y="52" type="line"/>
    </contour>
  </outline>
</glyph>
<glyph name="threesuperior" format="1">
  <advance width="236"/>
  <unicode hex="00B3"/>
  <outline>
    <contour>
      <point x="42" y="738" type="line"/>
      <point x="66" y="763"/>
      <point x="93" y="773"/>
      <point x="116" y="773" type="curve" smooth="yes"/>
      <point x="148" y="773"/>
      <point x="182" y="757"/>
      <point x="182" y="732" type="curve" smooth="yes"/>
      <point x="182" y="684"/>
      <point x="117" y="671"/>
      <point x="82" y="671" type="curve"/>
      <point x="85" y="627" type="line"/>
      <point x="160" y="630"/>
      <point x="191" y="598"/>
      <point x="191" y="556" type="curve" smooth="yes"/>
      <point x="191" y="496"/>
      <point x="140" y="483"/>
      <point x="119" y="483" type="curve" smooth="yes"/>
      <point x="78" y="483"/>
      <point x="48" y="504"/>
      <point x="43" y="541" type="curve"/>
      <point x="0" y="523" type="line"/>
      <point x="19" y="456"/>
      <point x="77" y="438"/>
      <point x="119" y="438" type="curve" smooth="yes"/>
      <point x="165" y="438"/>
      <point x="236" y="470"/>
      <point x="236" y="556" type="curve" smooth="yes"/>
      <point x="236" y="601"/>
      <point x="217" y="630"/>
      <point x="181" y="653" type="curve"/>
      <point x="212" y="672"/>
      <point x="228" y="699"/>
      <point x="228" y="732" type="curve" smooth="yes"/>
      <point x="228" y="780"/>
      <point x="179" y="818"/>
      <point x="116" y="818" type="curve" smooth="yes"/>
      <point x="66" y="818"/>
      <point x="30" y="791"/>
      <point x="11" y="771" type="curve"/>
    </contour>
  </outline>
</glyph>
<glyph name="periodcentered" format="1">
  <advance width="500"/>
  <unicode hex="00B7"/>
  <outline>
    <contour>
      <point x="291" y="299" type="line"/>
      <point x="218" y="289" type="line"/>
      <point x="209" y="207" type="line"/>
      <point x="283" y="217" type="line"/>
    </contour>
  </outline>
</glyph>
<glyph name="cedilla" format="1">
  <advance width="500"/>
  <unicode hex="00B8"/>
  <outline>
    <contour>
      <point x="231" y="29" type="line"/>
      <point x="204" y="27" type="line"/>
      <point x="179" y="-42" type="line"/>
      <point x="208" y="-72" type="line"/>
      <point x="213" y="-67"/>
      <point x="227" y="-61"/>
      <point x="240" y="-61" type="curve" smooth="yes"/>
      <point x="267" y="-61"/>
      <point x="289" y="-83"/>
      <point x="289" y="-110" type="curve" smooth="yes"/>
      <point x="289" y="-137"/>
      <point x="267" y="-159"/>
      <point x="240" y="-159" type="curve" smooth="yes"/>
      <point x="224" y="-159"/>
      <point x="203" y="-149"/>
      <point x="198" y="-136" type="curve"/>
      <point x="168" y="-166" type="line"/>
      <point x="185" y="-188"/>
      <point x="211" y="-201"/>
      <point x="240" y="-201" type="curve" smooth="yes"/>
      <point x="290" y="-201"/>
      <point x="331" y="-160"/>
      <point x="331" y="-110" type="curve" smooth="yes"/>
      <point x="331" y="-55"/>
      <point x="289" y="-19"/>
      <point x="233" y="-19" type="curve" smooth="yes"/>
      <point x="229" y="-19" type="line"/>
    </contour>
  </outline>
</glyph>
<glyph name="ordmasculine" format="1">
  <advance width="285"/>
  <unicode hex="00BA"/>
  <outline>
    <contour>
      <point x="215" y="356"/>
      <point x="284" y="437"/>
      <point x="284" y="531" type="curve" smooth="yes"/>
      <point x="284" y="611"/>
      <point x="226" y="681"/>
      <point x="152" y="681" type="curve" smooth="yes"/>
      <point x="68" y="681"/>
      <point x="0" y="601"/>
      <point x="0" y="505" type="curve" smooth="yes"/>
      <point x="0" y="426"/>
      <point x="53" y="356"/>
      <point x="133" y="356" type="curve" smooth="yes"/>
    </contour>
    <contour>
      <point x="198" y="634"/>
      <point x="232" y="579"/>
      <point x="232" y="527" type="curve" smooth="yes"/>
      <point x="232" y="460"/>
      <point x="184" y="402"/>
      <point x="133" y="402" type="curve" smooth="yes"/>
      <point x="87" y="402"/>
      <point x="52" y="447"/>
      <point x="52" y="505" type="curve" smooth="yes"/>
      <point x="52" y="575"/>
      <point x="97" y="634"/>
      <point x="149" y="634" type="curve" smooth="yes"/>
    </contour>
  </outline>
</glyph>
<glyph name="Aacute" format="1">
  <advance width="623"/>
  <unicode hex="00C1"/>
  <outline>
    <contour>
      <point x="360" y="680" type="line"/>
      <point x="290" y="667" type="line"/>
      <point x="135" y="253" type="line"/>
      <point x="60" y="238" type="line"/>
      <point x="71" y="184" type="line"/>
      <point x="112" y="192" type="line"/>
      <point x="50" y="26" type="line"/>
      <point x="99" y="0" type="line"/>
      <point x="176" y="206" type="line"/>
      <point x="440" y="261" type="line"/>
      <point x="526" y="1" type="line"/>
      <point x="573" y="33" type="line"/>
    </contour>
    <contour>
      <point x="199" y="267" type="line"/>
      <point x="326" y="607" type="line"/>
      <point x="423" y="313" type="line"/>
    </contour>
    <contour>
      <point x="226" y="771" type="line"/>
      <point x="266" y="736" type="line"/>
      <point x="428" y="848" type="line"/>
      <point x="376" y="893" type="line"/>
    </contour>
  </outline>
</glyph>
<glyph name="Aring" format="1">
  <advance width="623"/>
  <unicode hex="00C5"/>
  <outline>
    <contour>
      <point x="375" y="721"/>
      <point x="446" y="763"/>
      <point x="446" y="837" type="curve" smooth="yes"/>
      <point x="446" y="888"/>
      <point x="402" y="940"/>
      <point x="332" y="940" type="curve" smooth="yes"/>
      <point x="258" y="940"/>
      <point x="198" y="886"/>
      <point x="198" y="823" type="curve" smooth="yes"/>
      <point x="198" y="768"/>
      <point x="245" y="721"/>
      <point x="312" y="721" type="curve" smooth="yes"/>
    </contour>
    <contour>
      <point x="370" y="893"/>
      <point x="405" y="866"/>
      <point x="405" y="835" type="curve" smooth="yes"/>
      <point x="405" y="796"/>
      <point x="356" y="767"/>
      <point x="314" y="767" type="curve" smooth="yes"/>
      <point x="273" y="767"/>
      <point x="240" y="790"/>
      <point x="240" y="823" type="curve" smooth="yes"/>
      <point x="240" y="868"/>
      <point x="294" y="893"/>
      <point x="329" y="893" type="curve" smooth="yes"/>
    </contour>
    <contour>
      <point x="360" y="680" type="line"/>
      <point x="290" y="667" type="line"/>
      <point x="135" y="253" type="line"/>
      <point x="60" y="238" type="line"/>
      <point x="71" y="184" type="line"/>
      <point x="112" y="192" type="line"/>
      <point x="50" y="26" type="line"/>
      <point x="99" y="0" type="line"/>
      <point x="176" y="206" type="line"/>
      <point x="440" y="261" type="line"/>
      <point x="526" y="1" type="line"/>
      <point x="573" y="33" type="line"/>
    </contour>
    <contour>
      <point x="199" y="267" type="line"/>
      <point x="326" y="607" type="line"/>
      <point x="423" y="313" type="line"/>
    </contour>
  </outline>
</glyph>
<glyph name="Ccedilla" format="1">
  <advance width="631"/>
  <unicode hex="00C7"/>
  <outline>
    <contour>
      <point x="328" y="-159"/>
      <point x="307" y="-149"/>
      <point x="302" y="-136" type="curve"/>
      <point x="272" y="-166" type="line"/>
      <point x="289" y="-188"/>
      <point x="315" y="-201"/>
      <point x="344" y="-201" type="curve" smooth="yes"/>
      <point x="394" y="-201"/>
      <point x="435" y="-160"/>
      <point x="435" y="-110" type="curve" smooth="yes"/>
      <point x="435" y="-55"/>
      <point x="393" y="-19"/>
      <point x="337" y="-19" type="curve" smooth="yes"/>
      <point x="333" y="-19" type="line"/>
      <point x="333" y="-1" type="line"/>
      <point x="437" y="-1"/>
      <point x="531" y="49"/>
      <point x="581" y="131" type="curve"/>
      <point x="542" y="170" type="line"/>
      <point x="503" y="94"/>
      <point x="428" y="52"/>
      <point x="334" y="52" type="curve" smooth="yes"/>
      <point x="206" y="52"/>
      <point x="103" y="161"/>
      <point x="103" y="293" type="curve" smooth="yes"/>
      <point x="103" y="426"/>
      <point x="209" y="628"/>
      <point x="340" y="628" type="curve" smooth="yes"/>
      <point x="421" y="628"/>
      <point x="466" y="594"/>
      <point x="493" y="564" type="curve"/>
      <point x="493" y="539" type="line"/>
      <point x="539" y="539" type="line"/>
      <point x="539" y="658" type="line"/>
      <point x="493" y="658" type="line"/>
      <point x="493" y="635" type="line"/>
      <point x="453" y="665"/>
      <point x="402" y="681"/>
      <point x="346" y="681" type="curve" smooth="yes"/>
      <point x="169" y="681"/>
      <point x="51" y="452"/>
      <point x="51" y="291" type="curve" smooth="yes"/>
      <point x="51" y="138"/>
      <point x="160" y="18"/>
      <point x="298" y="1" type="curve"/>
      <point x="283" y="-42" type="line"/>
      <point x="312" y="-72" type="line"/>
      <point x="317" y="-67"/>
      <point x="331" y="-61"/>
      <point x="344" y="-61" type="curve" smooth="yes"/>
      <point x="371" y="-61"/>
      <point x="393" y="-83"/>
      <point x="393" y="-110" type="curve" smooth="yes"/>
      <point x="393" y="-137"/>
      <point x="371" y="-159"/>
      <point x="344" y="-159" type="curve" smooth="yes"/>
    </contour>
  </outline>
</glyph>
<glyph name="Egrave" format="1">
  <advance width="611"/>
  <unicode hex="00C8"/>
  <outline>
    <contour>
      <point x="121" y="56" type="line"/>
      <point x="121" y="326" type="line"/>
      <point x="489" y="326" type="line"/>
      <point x="506" y="382" type="line"/>
      <point x="121" y="382" type="line"/>
      <point x="121" y="625" type="line"/>
      <point x="536" y="625" type="line"/>
      <point x="546" y="681" type="line"/>
      <point x="65" y="681" type="line"/>
      <point x="65" y="0" type="line"/>
      <point x="531" y="0" type="line"/>
      <point x="551" y="56" type="line"/>
    </contour>
    <contour>
      <point x="375" y="754" type="line"/>
      <point x="249" y="900" type="line"/>
      <point x="189" y="866" type="line"/>
      <point x="329" y="726" type="line"/>
    </contour>
  </outline>
</glyph>
<glyph name="Eacute" format="1">
  <advance width="611"/>
  <unicode hex="00C9"/>
  <outline>
    <contour>
      <point x="121" y="56" type="line"/>
      <point x="121" y="326" type="line"/>
      <point x="489" y="326" type="line"/>
      <point x="506" y="382" type="line"/>
      <point x="121" y="382" type="line"/>
      <point x="121" y="625" type="line"/>
      <point x="536" y="625" type="line"/>
      <point x="546" y="681" type="line"/>
      <point x="65" y="681" type="line"/>
      <point x="65" y="0" type="line"/>
      <point x="531" y="0" type="line"/>
      <point x="551" y="56" type="line"/>
    </contour>
    <contour>
      <point x="198" y="771" type="line"/>
      <point x="239" y="736" type="line"/>
      <point x="401" y="848" type="line"/>
      <point x="348" y="893" type="line"/>
    </contour>
  </outline>
</glyph>
<glyph name="Edieresis" format="1">
  <advance width="611"/>
  <unicode hex="00CB"/>
  <outline>
    <contour>
      <point x="121" y="56" type="line"/>
      <point x="121" y="326" type="line"/>
      <point x="489" y="326" type="line"/>
      <point x="506" y="382" type="line"/>
      <point x="121" y="382" type="line"/>
      <point x="121" y="625" type="line"/>
      <point x="536" y="625" type="line"/>
      <point x="546" y="681" type="line"/>
      <point x="65" y="681" type="line"/>
      <point x="65" y="0" type="line"/>
      <point x="531" y="0" type="line"/>
      <point x="551" y="56" type="line"/>
    </contour>
    <contour>
      <point x="271" y="819" type="line"/>
      <point x="198" y="809" type="line"/>
      <point x="189" y="727" type="line"/>
      <point x="263" y="737" type="line"/>
    </contour>
    <contour>
      <point x="432" y="819" type="line"/>
      <point x="359" y="809" type="line"/>
      <point x="350" y="727" type="line"/>
      <point x="424" y="737" type="line"/>
    </contour>
  </outline>
</glyph>
<glyph name="Iacute" format="1">
  <advance width="437"/>
  <unicode hex="00CD"/>
  <outline>
    <contour>
      <point x="367" y="625" type="line"/>
      <point x="377" y="681" type="line"/>
      <point x="70" y="681" type="line"/>
      <point x="60" y="625" type="line"/>
      <point x="193" y="625" type="line"/>
      <point x="193" y="56" type="line"/>
      <point x="70" y="56" type="line"/>
      <point x="60" y="0" type="line"/>
      <point x="367" y="0" type="line"/>
      <point x="377" y="56" type="line"/>
      <point x="249" y="56" type="line"/>
      <point x="249" y="625" type="line"/>
    </contour>
    <contour>
      <point x="124" y="771" type="line"/>
      <point x="165" y="736" type="line"/>
      <point x="327" y="848" type="line"/>
      <point x="274" y="893" type="line"/>
    </contour>
  </outline>
</glyph>
<glyph name="Icircumflex" format="1">
  <advance width="437"/>
  <unicode hex="00CE"/>
  <outline>
    <contour>
      <point x="367" y="625" type="line"/>
      <point x="377" y="681" type="line"/>
      <point x="70" y="681" type="line"/>
      <point x="60" y="625" type="line"/>
      <point x="193" y="625" type="line"/>
      <point x="193" y="56" type="line"/>
      <point x="70" y="56" type="line"/>
      <point x="60" y="0" type="line"/>
      <point x="367" y="0" type="line"/>
      <point x="377" y="56" type="line"/>
      <point x="249" y="56" type="line"/>
      <point x="249" y="625" type="line"/>
    </contour>
    <contour>
      <point x="114" y="718" type="line"/>
      <point x="228" y="806" type="line"/>
      <point x="324" y="719" type="line"/>
      <point x="360" y="759" type="line"/>
      <point x="231" y="881" type="line"/>
      <point x="81" y="760" type="line"/>
    </contour>
  </outline>
</glyph>
<glyph name="Idieresis" format="1">
  <advance width="437"/>
  <unicode hex="00CF"/>
  <outline>
    <contour>
      <point x="367" y="625" type="line"/>
      <point x="377" y="681" type="line"/>
      <point x="70" y="681" type="line"/>
      <point x="60" y="625" type="line"/>
      <point x="193" y="625" type="line"/>
      <point x="193" y="56" type="line"/>
      <point x="70" y="56" type="line"/>
      <point x="60" y="0" type="line"/>
      <point x="367" y="0" type="line"/>
      <point x="377" y="56" type="line"/>
      <point x="249" y="56" type="line"/>
      <point x="249" y="625" type="line"/>
    </contour>
    <contour>
      <point x="185" y="819" type="line"/>
      <point x="112" y="809" type="line"/>
      <point x="103" y="727" type="line"/>
      <point x="177" y="737" type="line"/>
    </contour>
    <contour>
      <point x="346" y="819" type="line"/>
      <point x="273" y="809" type="line"/>
      <point x="264" y="727" type="line"/>
      <point x="338" y="737" type="line"/>
    </contour>
  </outline>
</glyph>
<glyph name="Otilde" format="1">
  <advance width="660"/>
  <unicode hex="00D5"/>
  <outline>
    <contour>
      <point x="465" y="0"/>
      <point x="600" y="169"/>
      <point x="600" y="369" type="curve" smooth="yes"/>
      <point x="600" y="541"/>
      <point x="495" y="684"/>
      <point x="351" y="684" type="curve" smooth="yes"/>
      <point x="195" y="684"/>
      <point x="60" y="515"/>
      <point x="60" y="315" type="curve" smooth="yes"/>
      <point x="60" y="145"/>
      <point x="164" y="0"/>
      <point x="309" y="0" type="curve" smooth="yes"/>
    </contour>
    <contour>
      <point x="463" y="632"/>
      <point x="547" y="500"/>
      <point x="547" y="365" type="curve" smooth="yes"/>
      <point x="547" y="195"/>
      <point x="432" y="52"/>
      <point x="309" y="52" type="curve" smooth="yes"/>
      <point x="195" y="52"/>
      <point x="113" y="171"/>
      <point x="113" y="315" type="curve" smooth="yes"/>
      <point x="113" y="491"/>
      <point x="221" y="632"/>
      <point x="344" y="632" type="curve" smooth="yes"/>
    </contour>
    <contour>
      <point x="402" y="762"/>
      <point x="391" y="785"/>
      <point x="372" y="811" type="curve" smooth="yes"/>
      <point x="353" y="837"/>
      <point x="329" y="870"/>
      <point x="283" y="870" type="curve" smooth="yes"/>
      <point x="222" y="870"/>
      <point x="189" y="813"/>
      <point x="173" y="763" type="curve"/>
      <point x="222" y="745" type="line"/>
      <point x="228" y="770"/>
      <point x="252" y="829"/>
      <point x="283" y="829" type="curve" smooth="yes"/>
      <point x="300" y="829"/>
      <point x="311" y="807"/>
      <point x="330" y="781" type="curve" smooth="yes"/>
      <point x="350" y="753"/>
      <point x="374" y="721"/>
      <point x="419" y="721" type="curve" smooth="yes"/>
      <point x="470" y="721"/>
      <point x="517" y="772"/>
      <point x="532" y="837" type="curve"/>
      <point x="483" y="853" type="line"/>
      <point x="474" y="824"/>
      <point x="452" y="762"/>
      <point x="419" y="762" type="curve" smooth="yes"/>
    </contour>
  </outline>
</glyph>
<glyph name="Uacute" format="1">
  <advance width="684"/>
  <unicode hex="00DA"/>
  <outline>
    <contour>
      <point x="598" y="0"/>
      <point x="618" y="245"/>
      <point x="618" y="476" type="curve" smooth="yes"/>
      <point x="618" y="550"/>
      <point x="617" y="656"/>
      <point x="616" y="680" type="curve"/>
      <point x="560" y="669" type="line"/>
      <point x="561" y="634"/>
      <point x="562" y="514"/>
      <point x="562" y="431" type="curve" smooth="yes"/>
      <point x="562" y="260"/>
      <point x="546" y="49"/>
      <point x="342" y="49" type="curve" smooth="yes"/>
      <point x="145" y="49"/>
      <point x="122" y="241"/>
      <point x="122" y="450" type="curve" smooth="yes"/>
      <point x="122" y="534"/>
      <point x="124" y="658"/>
      <point x="125" y="680" type="curve"/>
      <point x="68" y="670" type="line"/>
      <point x="67" y="640"/>
      <point x="66" y="529"/>
      <point x="66" y="459" type="curve" smooth="yes"/>
      <point x="66" y="197"/>
      <point x="105" y="0"/>
      <point x="342" y="0" type="curve" smooth="yes"/>
    </contour>
    <contour>
      <point x="264" y="771" type="line"/>
      <point x="305" y="736" type="line"/>
      <point x="467" y="848" type="line"/>
      <point x="414" y="893" type="line"/>
    </contour>
  </outline>
</glyph>
<glyph name="Yacute" format="1">
  <advance width="628"/>
  <unicode hex="00DD"/>
  <outline>
    <contour>
      <point x="322" y="266" type="line"/>
      <point x="82" y="677" type="line"/>
      <point x="20" y="677" type="line"/>
      <point x="290" y="214" type="line"/>
      <point x="164" y="0" type="line"/>
      <point x="226" y="0" type="line"/>
      <point x="628" y="677" type="line"/>
      <point x="566" y="677" type="line"/>
    </contour>
    <contour>
      <point x="236" y="771" type="line"/>
      <point x="277" y="736" type="line"/>
      <point x="439" y="848" type="line"/>
      <point x="386" y="893" type="line"/>
    </contour>
  </outline>
</glyph>
<glyph name="Thorn" format="1">
  <advance width="506"/>
  <unicode hex="00DE"/>
  <outline>
    <contour>
      <point x="65" y="674" type="line"/>
      <point x="65" y="0" type="line"/>
      <point x="118" y="12" type="line"/>
      <point x="118" y="143" type="line"/>
      <point x="262" y="152"/>
      <point x="476" y="199"/>
      <point x="476" y="377" type="curve" smooth="yes"/>
      <point x="476" y="560"/>
      <point x="258" y="576"/>
      <point x="120" y="576" type="curve"/>
      <point x="120" y="686" type="line"/>
    </contour>
    <contour>
      <point x="120" y="519" type="line"/>
      <point x="297" y="519"/>
      <point x="421" y="483"/>
      <point x="421" y="377" type="curve" smooth="yes"/>
      <point x="421" y="268"/>
      <point x="295" y="210"/>
      <point x="119" y="202" type="curve"/>
    </contour>
  </outline>
</glyph>
<glyph name="acircumflex" format="1">
  <advance width="504"/>
  <unicode hex="00E2"/>
  <outline>
    <contour>
      <point x="439" y="472" type="line"/>
      <point x="394" y="495"/>
      <point x="342" y="513"/>
      <point x="287" y="513" type="curve" smooth="yes"/>
      <point x="114" y="513"/>
      <point x="50" y="326"/>
      <point x="50" y="223" type="curve" smooth="yes"/>
      <point x="50" y="95"/>
      <point x="129" y="7"/>
      <point x="238" y="7" type="curve" smooth="yes"/>
      <point x="294" y="7"/>
      <point x="348" y="33"/>
      <point x="383" y="54" type="curve"/>
      <point x="383" y="0" type="line"/>
      <point x="439" y="11" type="line"/>
    </contour>
    <contour>
      <point x="141" y="64"/>
      <point x="107" y="153"/>
      <point x="107" y="225" type="curve" smooth="yes"/>
      <point x="107" y="309"/>
      <point x="155" y="458"/>
      <point x="292" y="458" type="curve" smooth="yes"/>
      <point x="326" y="458"/>
      <point x="367" y="444"/>
      <point x="386" y="436" type="curve"/>
      <point x="381" y="120" type="line"/>
      <point x="359" y="103"/>
      <point x="296" y="62"/>
      <point x="236" y="62" type="curve" smooth="yes"/>
    </contour>
    <contour>
      <point x="174" y="549" type="line"/>
      <point x="289" y="637" type="line"/>
      <point x="385" y="550" type="line"/>
      <point x="421" y="590" type="line"/>
      <point x="292" y="712" type="line"/>
      <point x="141" y="591" type="line"/>
    </contour>
  </outline>
</glyph>
<glyph name="aring" format="1">
  <advance width="504"/>
  <unicode hex="00E5"/>
  <outline>
    <contour>
      <point x="331" y="563"/>
      <point x="399" y="610"/>
      <point x="399" y="680" type="curve" smooth="yes"/>
      <point x="399" y="747"/>
      <point x="338" y="782"/>
      <point x="273" y="782" type="curve"/>
      <point x="212" y="778"/>
      <point x="150" y="729"/>
      <point x="150" y="666" type="curve" smooth="yes"/>
      <point x="150" y="615"/>
      <point x="195" y="563"/>
      <point x="264" y="563" type="curve" smooth="yes"/>
    </contour>
    <contour>
      <point x="320" y="736"/>
      <point x="357" y="711"/>
      <point x="357" y="677" type="curve" smooth="yes"/>
      <point x="357" y="632"/>
      <point x="301" y="610"/>
      <point x="266" y="610" type="curve" smooth="yes"/>
      <point x="232" y="610"/>
      <point x="192" y="628"/>
      <point x="192" y="666" type="curve" smooth="yes"/>
      <point x="192" y="697"/>
      <point x="231" y="736"/>
      <point x="282" y="736" type="curve" smooth="yes"/>
    </contour>
    <contour>
      <point x="439" y="472" type="line"/>
      <point x="394" y="495"/>
      <point x="342" y="513"/>
      <point x="287" y="513" type="curve" smooth="yes"/>
      <point x="114" y="513"/>
      <point x="50" y="326"/>
      <point x="50" y="223" type="curve" smooth="yes"/>
      <point x="50" y="95"/>
      <point x="129" y="7"/>
      <point x="238" y="7" type="curve" smooth="yes"/>
      <point x="294" y="7"/>
      <point x="348" y="33"/>
      <point x="383" y="54" type="curve"/>
      <point x="383" y="0" type="line"/>
      <point x="439" y="11" type="line"/>
    </contour>
    <contour>
      <point x="141" y="64"/>
      <point x="107" y="153"/>
      <point x="107" y="225" type="curve" smooth="yes"/>
      <point x="107" y="309"/>
      <point x="155" y="458"/>
      <point x="292" y="458" type="curve" smooth="yes"/>
      <point x="326" y="458"/>
      <point x="367" y="444"/>
      <point x="386" y="436" type="curve"/>
      <point x="381" y="120" type="line"/>
      <point x="359" y="103"/>
      <point x="296" y="62"/>
      <point x="236" y="62" type="curve" smooth="yes"/>
    </contour>
  </outline>
</glyph>
<glyph name="ccedilla" format="1">
  <advance width="507"/>
  <unicode hex="00E7"/>
  <outline>
    <contour>
      <point x="252" y="-159"/>
      <point x="231" y="-149"/>
      <point x="226" y="-136" type="curve"/>
      <point x="196" y="-166" type="line"/>
      <point x="213" y="-188"/>
      <point x="239" y="-201"/>
      <point x="268" y="-201" type="curve" smooth="yes"/>
      <point x="318" y="-201"/>
      <point x="359" y="-160"/>
      <point x="359" y="-110" type="curve" smooth="yes"/>
      <point x="359" y="-55"/>
      <point x="317" y="-19"/>
      <point x="261" y="-19" type="curve" smooth="yes"/>
      <point x="257" y="-19" type="line"/>
      <point x="258" y="0" type="line"/>
      <point x="279" y="0" type="line"/>
      <point x="355" y="3"/>
      <point x="420" y="41"/>
      <point x="457" y="97" type="curve"/>
      <point x="417" y="137" type="line"/>
      <point x="391" y="88"/>
      <point x="339" y="55"/>
      <point x="277" y="52" type="curve" smooth="yes"/>
      <point x="229" y="50"/>
      <point x="104" y="78"/>
      <point x="104" y="218" type="curve" smooth="yes"/>
      <point x="104" y="309"/>
      <point x="177" y="450"/>
      <point x="276" y="450" type="curve" smooth="yes"/>
      <point x="322" y="450"/>
      <point x="363" y="429"/>
      <point x="386" y="391" type="curve"/>
      <point x="426" y="430" type="line"/>
      <point x="391" y="477"/>
      <point x="338" y="502"/>
      <point x="274" y="502" type="curve" smooth="yes"/>
      <point x="138" y="502"/>
      <point x="51" y="329"/>
      <point x="51" y="216" type="curve" smooth="yes"/>
      <point x="51" y="111"/>
      <point x="128" y="26"/>
      <point x="224" y="5" type="curve"/>
      <point x="207" y="-42" type="line"/>
      <point x="236" y="-72" type="line"/>
      <point x="241" y="-67"/>
      <point x="255" y="-61"/>
      <point x="268" y="-61" type="curve" smooth="yes"/>
      <point x="295" y="-61"/>
      <point x="317" y="-83"/>
      <point x="317" y="-110" type="curve" smooth="yes"/>
      <point x="317" y="-137"/>
      <point x="295" y="-159"/>
      <point x="268" y="-159" type="curve" smooth="yes"/>
    </contour>
  </outline>
</glyph>
<glyph name="icircumflex" format="1">
  <advance width="246"/>
  <unicode hex="00EE"/>
  <outline>
    <contour>
      <point x="98" y="491" type="line"/>
      <point x="98" y="0" type="line"/>
      <point x="157" y="10" type="line"/>
      <point x="157" y="500" type="line"/>
    </contour>
    <contour>
      <point x="27" y="549" type="line"/>
      <point x="141" y="637" type="line"/>
      <point x="237" y="550" type="line"/>
      <point x="273" y="590" type="line"/>
      <point x="144" y="712" type="line"/>
      <point x="-6" y="591" type="line"/>
    </contour>
  </outline>
</glyph>
<glyph name="ocircumflex" format="1">
  <advance width="535"/>
  <unicode hex="00F4"/>
  <outline>
    <contour>
      <point x="182" y="549" type="line"/>
      <point x="296" y="637" type="line"/>
      <point x="392" y="550" type="line"/>
      <point x="428" y="590" type="line"/>
      <point x="299" y="712" type="line"/>
      <point x="149" y="591" type="line"/>
    </contour>
    <contour>
      <point x="378" y="0"/>
      <point x="485" y="123"/>
      <point x="485" y="270" type="curve" smooth="yes"/>
      <point x="485" y="394"/>
      <point x="397" y="500"/>
      <point x="283" y="500" type="curve" smooth="yes"/>
      <point x="157" y="500"/>
      <point x="50" y="376"/>
      <point x="50" y="230" type="curve" smooth="yes"/>
      <point x="50" y="104"/>
      <point x="137" y="0"/>
      <point x="252" y="0" type="curve" smooth="yes"/>
    </contour>
    <contour>
      <point x="361" y="452"/>
      <point x="427" y="365"/>
      <point x="427" y="265" type="curve" smooth="yes"/>
      <point x="427" y="149"/>
      <point x="343" y="48"/>
      <point x="252" y="48" type="curve" smooth="yes"/>
      <point x="165" y="48"/>
      <point x="107" y="133"/>
      <point x="107" y="232" type="curve" smooth="yes"/>
      <point x="107" y="349"/>
      <point x="185" y="452"/>
      <point x="278" y="452" type="curve" smooth="yes"/>
    </contour>
  </outline>
</glyph>
<glyph name="yacute" format="1">
  <advance width="500"/>
  <unicode hex="00FD"/>
  <outline>
    <contour>
      <point x="429" y="499" type="line"/>
      <point x="256" y="126" type="line"/>
      <point x="70" y="498" type="line"/>
      <point x="20" y="473" type="line"/>
      <point x="226" y="60" type="line"/>
      <point x="117" y="-174" type="line"/>
      <point x="168" y="-198" type="line"/>
      <point x="480" y="475" type="line"/>
    </contour>
    <contour>
      <point x="160" y="602" type="line"/>
      <point x="201" y="567" type="line"/>
      <point x="363" y="679" type="line"/>
      <point x="310" y="724" type="line"/>
    </contour>
  </outline>
</glyph>
<glyph name="thorn" format="1">
  <advance width="528"/>
  <unicode hex="00FE"/>
  <outline>
    <contour>
      <point x="222" y="489"/>
      <point x="152" y="452"/>
      <point x="121" y="408" type="curve"/>
      <point x="121" y="691" type="line"/>
      <point x="65" y="680" type="line"/>
      <point x="65" y="-175" type="line"/>
      <point x="121" y="-185" type="line"/>
      <point x="121" y="28" type="line"/>
      <point x="152" y="15"/>
      <point x="207" y="0"/>
      <point x="259" y="0" type="curve" smooth="yes"/>
      <point x="471" y="0"/>
      <point x="478" y="214"/>
      <point x="478" y="267" type="curve" smooth="yes"/>
      <point x="478" y="371"/>
      <point x="436" y="489"/>
      <point x="303" y="489" type="curve" smooth="yes"/>
    </contour>
    <contour>
      <point x="194" y="54"/>
      <point x="139" y="72"/>
      <point x="121" y="81" type="curve"/>
      <point x="121" y="290" type="line" smooth="yes"/>
      <point x="121" y="369"/>
      <point x="200" y="433"/>
      <point x="307" y="433" type="curve" smooth="yes"/>
      <point x="401" y="433"/>
      <point x="425" y="328"/>
      <point x="425" y="267" type="curve" smooth="yes"/>
      <point x="425" y="140"/>
      <point x="377" y="54"/>
      <point x="251" y="54" type="curve" smooth="yes"/>
    </contour>
  </outline>
</glyph>
<glyph name="Abreve" format="1">
  <advance width="623"/>
  <unicode hex="0102"/>
  <outline>
    <contour>
      <point x="360" y="680" type="line"/>
      <point x="290" y="667" type="line"/>
      <point x="135" y="253" type="line"/>
      <point x="60" y="238" type="line"/>
      <point x="71" y="184" type="line"/>
      <point x="112" y="192" type="line"/>
      <point x="50" y="26" type="line"/>
      <point x="99" y="0" type="line"/>
      <point x="176" y="206" type="line"/>
      <point x="440" y="261" type="line"/>
      <point x="526" y="1" type="line"/>
      <point x="573" y="33" type="line"/>
    </contour>
    <contour>
      <point x="199" y="267" type="line"/>
      <point x="326" y="607" type="line"/>
      <point x="423" y="313" type="line"/>
    </contour>
    <contour>
      <point x="299" y="785"/>
      <point x="247" y="797"/>
      <point x="213" y="858" type="curve"/>
      <point x="183" y="828" type="line"/>
      <point x="207" y="775"/>
      <point x="265" y="739"/>
      <point x="335" y="739" type="curve" smooth="yes"/>
      <point x="398" y="739"/>
      <point x="458" y="777"/>
      <point x="477" y="832" type="curve"/>
      <point x="446" y="863" type="line"/>
      <point x="428" y="814"/>
      <point x="399" y="785"/>
      <point x="336" y="785" type="curve" smooth="yes"/>
    </contour>
  </outline>
</glyph>
<glyph name="aogonek" format="1">
  <advance width="510"/>
  <unicode hex="0105"/>
  <outline>
    <contour>
      <point x="439" y="15" type="line"/>
      <point x="439" y="472" type="line"/>
      <point x="394" y="495"/>
      <point x="342" y="513"/>
      <point x="287" y="513" type="curve" smooth="yes"/>
      <point x="114" y="513"/>
      <point x="50" y="326"/>
      <point x="50" y="223" type="curve" smooth="yes"/>
      <point x="50" y="95"/>
      <point x="129" y="7"/>
      <point x="238" y="7" type="curve" smooth="yes"/>
      <point x="294" y="7"/>
      <point x="348" y="33"/>
      <point x="383" y="54" type="curve"/>
      <point x="383" y="26" type="line"/>
      <point x="343" y="0"/>
      <point x="299" y="-46"/>
      <point x="299" y="-100" type="curve" smooth="yes"/>
      <point x="299" y="-158"/>
      <point x="343" y="-201"/>
      <point x="402" y="-201" type="curve" smooth="yes"/>
      <point x="443" y="-201"/>
      <point x="483" y="-180"/>
      <point x="500" y="-159" type="curve"/>
      <point x="476" y="-127" type="line"/>
      <point x="453" y="-145"/>
      <point x="434" y="-158"/>
      <point x="402" y="-158" type="curve" smooth="yes"/>
      <point x="368" y="-158"/>
      <point x="341" y="-135"/>
      <point x="341" y="-101" type="curve" smooth="yes"/>
      <point x="341" y="-57"/>
      <point x="381" y="-28"/>
      <point x="404" y="-11" type="curve" smooth="yes"/>
    </contour>
    <contour>
      <point x="141" y="64"/>
      <point x="107" y="153"/>
      <point x="107" y="225" type="curve" smooth="yes"/>
      <point x="107" y="309"/>
      <point x="155" y="458"/>
      <point x="292" y="458" type="curve" smooth="yes"/>
      <point x="326" y="458"/>
      <point x="367" y="444"/>
      <point x="386" y="436" type="curve"/>
      <point x="381" y="120" type="line"/>
      <point x="359" y="103"/>
      <point x="296" y="62"/>
      <point x="236" y="62" type="curve" smooth="yes"/>
    </contour>
  </outline>
</glyph>
<glyph name="cacute" format="1">
  <advance width="507"/>
  <unicode hex="0107"/>
  <outline>
    <contour>
      <point x="229" y="50"/>
      <point x="104" y="78"/>
      <point x="104" y="218" type="curve" smooth="yes"/>
      <point x="104" y="309"/>
      <point x="177" y="450"/>
      <point x="276" y="450" type="curve" smooth="yes"/>
      <point x="322" y="450"/>
      <point x="363" y="429"/>
      <point x="386" y="391" type="curve"/>
      <point x="426" y="430" type="line"/>
      <point x="391" y="477"/>
      <point x="338" y="502"/>
      <point x="274" y="502" type="curve" smooth="yes"/>
      <point x="138" y="502"/>
      <point x="51" y="329"/>
      <point x="51" y="216" type="curve" smooth="yes"/>
      <point x="51" y="92"/>
      <point x="160" y="-6"/>
      <point x="279" y="0" type="curve" smooth="yes"/>
      <point x="355" y="3"/>
      <point x="420" y="41"/>
      <point x="457" y="97" type="curve"/>
      <point x="417" y="137" type="line"/>
      <point x="391" y="88"/>
      <point x="339" y="55"/>
      <point x="277" y="52" type="curve" smooth="yes"/>
    </contour>
    <contour>
      <point x="187" y="602" type="line"/>
      <point x="227" y="567" type="line"/>
      <point x="389" y="679" type="line"/>
      <point x="337" y="724" type="line"/>
    </contour>
  </outline>
</glyph>
<glyph name="Dcroat" format="1">
  <advance width="676"/>
  <unicode hex="0110"/>
  <outline>
    <contour>
      <point x="125" y="1" type="line"/>
      <point x="165" y="-10"/>
      <point x="229" y="-15"/>
      <point x="267" y="-15" type="curve" smooth="yes"/>
      <point x="490" y="-15"/>
      <point x="616" y="99"/>
      <point x="616" y="301" type="curve" smooth="yes"/>
      <point x="616" y="453"/>
      <point x="546" y="566"/>
      <point x="415" y="628" type="curve" smooth="yes"/>
      <point x="355" y="657"/>
      <point x="269" y="680"/>
      <point x="151" y="680" type="curve" smooth="yes"/>
      <point x="125" y="680" type="line"/>
      <point x="125" y="350" type="line"/>
      <point x="36" y="350" type="line"/>
      <point x="26" y="291" type="line"/>
      <point x="125" y="291" type="line"/>
    </contour>
    <contour>
      <point x="179" y="627" type="line"/>
      <point x="220" y="626"/>
      <point x="310" y="617"/>
      <point x="391" y="579" type="curve" smooth="yes"/>
      <point x="505" y="525"/>
      <point x="562" y="432"/>
      <point x="562" y="301" type="curve" smooth="yes"/>
      <point x="562" y="201"/>
      <point x="528" y="129"/>
      <point x="462" y="86" type="curve" smooth="yes"/>
      <point x="401" y="47"/>
      <point x="322" y="39"/>
      <point x="267" y="39" type="curve" smooth="yes"/>
      <point x="230" y="39"/>
      <point x="198" y="42"/>
      <point x="179" y="45" type="curve"/>
      <point x="179" y="291" type="line"/>
      <point x="279" y="291" type="line"/>
      <point x="289" y="350" type="line"/>
      <point x="179" y="350" type="line"/>
    </contour>
  </outline>
</glyph>
<glyph name="Eogonek" format="1">
  <advance width="611"/>
  <unicode hex="0118"/>
  <outline>
    <contour>
      <point x="538" y="-127" type="line"/>
      <point x="515" y="-145"/>
      <point x="496" y="-158"/>
      <point x="464" y="-158" type="curve" smooth="yes"/>
      <point x="430" y="-158"/>
      <point x="403" y="-135"/>
      <point x="403" y="-101" type="curve" smooth="yes"/>
      <point x="403" y="-57"/>
      <point x="441" y="-30"/>
      <point x="466" y="-11" type="curve" smooth="yes"/>
      <point x="481" y="0" type="line"/>
      <point x="531" y="0" type="line"/>
      <point x="551" y="56" type="line"/>
      <point x="121" y="56" type="line"/>
      <point x="121" y="326" type="line"/>
      <point x="489" y="326" type="line"/>
      <point x="506" y="382" type="line"/>
      <point x="121" y="382" type="line"/>
      <point x="121" y="625" type="line"/>
      <point x="536" y="625" type="line"/>
      <point x="546" y="681" type="line"/>
      <point x="65" y="681" type="line"/>
      <point x="65" y="0" type="line"/>
      <point x="411" y="0" type="line"/>
      <point x="383" y="-26"/>
      <point x="361" y="-61"/>
      <point x="361" y="-100" type="curve" smooth="yes"/>
      <point x="361" y="-158"/>
      <point x="405" y="-201"/>
      <point x="464" y="-201" type="curve" smooth="yes"/>
      <point x="505" y="-201"/>
      <point x="545" y="-180"/>
      <point x="562" y="-159" type="curve"/>
    </contour>
  </outline>
</glyph>
<glyph name="eogonek" format="1">
  <advance width="527"/>
  <unicode hex="0119"/>
  <outline>
    <contour>
      <point x="396" y="-127" type="line"/>
      <point x="373" y="-145"/>
      <point x="354" y="-158"/>
      <point x="322" y="-158" type="curve" smooth="yes"/>
      <point x="288" y="-158"/>
      <point x="261" y="-135"/>
      <point x="261" y="-101" type="curve" smooth="yes"/>
      <point x="261" y="-39"/>
      <point x="327" y="-10"/>
      <point x="387" y="21" type="curve" smooth="yes"/>
      <point x="418" y="37"/>
      <point x="447" y="54"/>
      <point x="465" y="76" type="curve"/>
      <point x="428" y="111" type="line"/>
      <point x="391" y="72"/>
      <point x="343" y="51"/>
      <point x="292" y="51" type="curve" smooth="yes"/>
      <point x="218" y="51"/>
      <point x="154" y="95"/>
      <point x="123" y="159" type="curve"/>
      <point x="477" y="355" type="line"/>
      <point x="454" y="435"/>
      <point x="381" y="502"/>
      <point x="292" y="502" type="curve" smooth="yes"/>
      <point x="157" y="502"/>
      <point x="50" y="388"/>
      <point x="50" y="251" type="curve" smooth="yes"/>
      <point x="50" y="120"/>
      <point x="146" y="12"/>
      <point x="270" y="1" type="curve"/>
      <point x="242" y="-25"/>
      <point x="219" y="-60"/>
      <point x="219" y="-100" type="curve" smooth="yes"/>
      <point x="219" y="-158"/>
      <point x="263" y="-201"/>
      <point x="322" y="-201" type="curve" smooth="yes"/>
      <point x="363" y="-201"/>
      <point x="403" y="-180"/>
      <point x="420" y="-159" type="curve"/>
    </contour>
    <contour>
      <point x="339" y="451"/>
      <point x="384" y="424"/>
      <point x="410" y="378" type="curve"/>
      <point x="106" y="208" type="line"/>
      <point x="103" y="222"/>
      <point x="101" y="236"/>
      <point x="101" y="251" type="curve" smooth="yes"/>
      <point x="101" y="357"/>
      <point x="183" y="451"/>
      <point x="292" y="451" type="curve" smooth="yes"/>
    </contour>
  </outline>
</glyph>
<glyph name="ecaron" format="1">
  <advance width="527"/>
  <unicode hex="011B"/>
  <outline>
    <contour>
      <point x="357" y="0"/>
      <point x="419" y="27"/>
      <point x="465" y="76" type="curve"/>
      <point x="428" y="111" type="line"/>
      <point x="391" y="72"/>
      <point x="343" y="51"/>
      <point x="292" y="51" type="curve" smooth="yes"/>
      <point x="218" y="51"/>
      <point x="154" y="95"/>
      <point x="123" y="159" type="curve"/>
      <point x="477" y="355" type="line"/>
      <point x="454" y="435"/>
      <point x="381" y="502"/>
      <point x="292" y="502" type="curve" smooth="yes"/>
      <point x="157" y="502"/>
      <point x="50" y="388"/>
      <point x="50" y="251" type="curve" smooth="yes"/>
      <point x="50" y="113"/>
      <point x="158" y="0"/>
      <point x="292" y="0" type="curve" smooth="yes"/>
    </contour>
    <contour>
      <point x="339" y="451"/>
      <point x="384" y="424"/>
      <point x="410" y="378" type="curve"/>
      <point x="106" y="208" type="line"/>
      <point x="103" y="222"/>
      <point x="101" y="236"/>
      <point x="101" y="251" type="curve" smooth="yes"/>
      <point x="101" y="357"/>
      <point x="183" y="451"/>
      <point x="292" y="451" type="curve" smooth="yes"/>
    </contour>
    <contour>
      <point x="393" y="712" type="line"/>
      <point x="278" y="623" type="line"/>
      <point x="182" y="711" type="line"/>
      <point x="146" y="671" type="line"/>
      <point x="275" y="549" type="line"/>
      <point x="426" y="669" type="line"/>
    </contour>
  </outline>
</glyph>
<glyph name="Lacute" format="1">
  <advance width="487"/>
  <unicode hex="0139"/>
  <outline>
    <contour>
      <point x="65" y="0" type="line"/>
      <point x="466" y="29" type="line"/>
      <point x="462" y="85" type="line"/>
      <point x="121" y="60" type="line"/>
      <point x="121" y="678" type="line"/>
      <point x="65" y="668" type="line"/>
    </contour>
    <contour>
      <point x="113" y="771" type="line"/>
      <point x="153" y="736" type="line"/>
      <point x="315" y="848" type="line"/>
      <point x="263" y="893" type="line"/>
    </contour>
  </outline>
</glyph>
<glyph name="Lcaron" format="1">
  <advance width="532"/>
  <unicode hex="013D"/>
  <outline>
    <contour>
      <point x="110" y="0" type="line"/>
      <point x="511" y="29" type="line"/>
      <point x="507" y="85" type="line"/>
      <point x="166" y="60" type="line"/>
      <point x="166" y="678" type="line"/>
      <point x="110" y="668" type="line"/>
    </contour>
    <contour>
      <point x="311" y="881" type="line"/>
      <point x="197" y="792" type="line"/>
      <point x="101" y="880" type="line"/>
      <point x="65" y="840" type="line"/>
      <point x="194" y="718" type="line"/>
      <point x="344" y="838" type="line"/>
    </contour>
  </outline>
</glyph>
<glyph name="nacute" format="1">
  <advance width="536"/>
  <unicode hex="0144"/>
  <outline>
    <contour>
      <point x="121" y="502" type="line"/>
      <point x="65" y="492" type="line"/>
      <point x="65" y="0" type="line"/>
      <point x="120" y="11" type="line"/>
      <point x="121" y="112" type="line" smooth="yes"/>
      <point x="121" y="182"/>
      <point x="143" y="265"/>
      <point x="176" y="327" type="curve" smooth="yes"/>
      <point x="229" y="426"/>
      <point x="282" y="446"/>
      <point x="326" y="446" type="curve" smooth="yes"/>
      <point x="369" y="446"/>
      <point x="389" y="428"/>
      <point x="401" y="379" type="curve" smooth="yes"/>
      <point x="416" y="322"/>
      <point x="415" y="226"/>
      <point x="416" y="114" type="curve" smooth="yes"/>
      <point x="417" y="0" type="line"/>
      <point x="471" y="12" type="line"/>
      <point x="470" y="115" type="line" smooth="yes"/>
      <point x="469" y="248"/>
      <point x="469" y="332"/>
      <point x="454" y="393" type="curve" smooth="yes"/>
      <point x="436" y="465"/>
      <point x="394" y="501"/>
      <point x="326" y="501" type="curve" smooth="yes"/>
      <point x="225" y="501"/>
      <point x="142" y="411"/>
      <point x="121" y="297" type="curve"/>
    </contour>
    <contour>
      <point x="202" y="602" type="line"/>
      <point x="242" y="567" type="line"/>
      <point x="404" y="679" type="line"/>
      <point x="352" y="724" type="line"/>
    </contour>
  </outline>
</glyph>
<glyph name="Ohungarumlaut" format="1">
  <advance width="660"/>
  <unicode hex="0150"/>
  <outline>
    <contour>
      <point x="173" y="771" type="line"/>
      <point x="213" y="736" type="line"/>
      <point x="375" y="848" type="line"/>
      <point x="323" y="893" type="line"/>
    </contour>
    <contour>
      <point x="333" y="771" type="line"/>
      <point x="373" y="736" type="line"/>
      <point x="536" y="848" type="line"/>
      <point x="483" y="893" type="line"/>
    </contour>
    <contour>
      <point x="465" y="0"/>
      <point x="600" y="169"/>
      <point x="600" y="369" type="curve" smooth="yes"/>
      <point x="600" y="541"/>
      <point x="495" y="684"/>
      <point x="351" y="684" type="curve" smooth="yes"/>
      <point x="195" y="684"/>
      <point x="60" y="515"/>
      <point x="60" y="315" type="curve" smooth="yes"/>
      <point x="60" y="145"/>
      <point x="164" y="0"/>
      <point x="309" y="0" type="curve" smooth="yes"/>
    </contour>
    <contour>
      <point x="463" y="632"/>
      <point x="547" y="500"/>
      <point x="547" y="365" type="curve" smooth="yes"/>
      <point x="547" y="195"/>
      <point x="432" y="52"/>
      <point x="309" y="52" type="curve" smooth="yes"/>
      <point x="195" y="52"/>
      <point x="113" y="171"/>
      <point x="113" y="315" type="curve" smooth="yes"/>
      <point x="113" y="491"/>
      <point x="221" y="632"/>
      <point x="344" y="632" type="curve" smooth="yes"/>
    </contour>
  </outline>
</glyph>
<glyph name="OE" format="1">
  <advance width="1093"/>
  <unicode hex="0152"/>
  <outline>
    <contour>
      <point x="603" y="56" type="line"/>
      <point x="603" y="326" type="line"/>
      <point x="971" y="326" type="line"/>
      <point x="988" y="382" type="line"/>
      <point x="603" y="382" type="line"/>
      <point x="603" y="625" type="line"/>
      <point x="1018" y="625" type="line"/>
      <point x="1028" y="681" type="line"/>
      <point x="547" y="681" type="line"/>
      <point x="547" y="567" type="line"/>
      <point x="505" y="641"/>
      <point x="426" y="684"/>
      <point x="351" y="684" type="curve" smooth="yes"/>
      <point x="195" y="684"/>
      <point x="60" y="515"/>
      <point x="60" y="315" type="curve" smooth="yes"/>
      <point x="60" y="145"/>
      <point x="164" y="0"/>
      <point x="309" y="0" type="curve" smooth="yes"/>
      <point x="405" y="0"/>
      <point x="494" y="65"/>
      <point x="547" y="162" type="curve"/>
      <point x="547" y="0" type="line"/>
      <point x="1013" y="0" type="line"/>
      <point x="1033" y="56" type="line"/>
    </contour>
    <contour>
      <point x="534" y="173"/>
      <point x="429" y="52"/>
      <point x="309" y="52" type="curve" smooth="yes"/>
      <point x="195" y="52"/>
      <point x="113" y="171"/>
      <point x="113" y="315" type="curve" smooth="yes"/>
      <point x="113" y="491"/>
      <point x="221" y="632"/>
      <point x="344" y="632" type="curve" smooth="yes"/>
      <point x="463" y="632"/>
      <point x="547" y="500"/>
      <point x="547" y="365" type="curve"/>
    </contour>
  </outline>
</glyph>
<glyph name="rcaron" format="1">
  <advance width="402"/>
  <unicode hex="0159"/>
  <outline>
    <contour>
      <point x="375" y="431" type="line" smooth="yes"/>
      <point x="375" y="470"/>
      <point x="340" y="502"/>
      <point x="293" y="502" type="curve" smooth="yes"/>
      <point x="211" y="502"/>
      <point x="152" y="430"/>
      <point x="121" y="376" type="curve"/>
      <point x="121" y="502" type="line"/>
      <point x="65" y="492" type="line"/>
      <point x="65" y="0" type="line"/>
      <point x="121" y="10" type="line"/>
      <point x="121" y="252" type="line" smooth="yes"/>
      <point x="121" y="348"/>
      <point x="215" y="447"/>
      <point x="286" y="447" type="curve" smooth="yes"/>
      <point x="316" y="447"/>
      <point x="320" y="433"/>
      <point x="320" y="412" type="curve" smooth="yes"/>
      <point x="320" y="379" type="line"/>
      <point x="375" y="389" type="line"/>
    </contour>
    <contour>
      <point x="343" y="712" type="line"/>
      <point x="228" y="623" type="line"/>
      <point x="132" y="711" type="line"/>
      <point x="96" y="671" type="line"/>
      <point x="225" y="549" type="line"/>
      <point x="376" y="669" type="line"/>
    </contour>
  </outline>
</glyph>
<glyph name="sacute" format="1">
  <advance width="460"/>
  <unicode hex="015B"/>
  <outline>
    <contour>
      <point x="180" y="505"/>
      <point x="78" y="483"/>
      <point x="78" y="376" type="curve" smooth="yes"/>
      <point x="78" y="299"/>
      <point x="161" y="259"/>
      <point x="234" y="240" type="curve" smooth="yes"/>
      <point x="300" y="222"/>
      <point x="353" y="197"/>
      <point x="353" y="144" type="curve" smooth="yes"/>
      <point x="353" y="88"/>
      <point x="297" y="50"/>
      <point x="234" y="50" type="curve" smooth="yes"/>
      <point x="178" y="50"/>
      <point x="121" y="77"/>
      <point x="105" y="130" type="curve"/>
      <point x="50" y="121" type="line"/>
      <point x="72" y="44"/>
      <point x="151" y="0"/>
      <point x="234" y="0" type="curve" smooth="yes"/>
      <point x="291" y="0"/>
      <point x="409" y="31"/>
      <point x="409" y="145" type="curve" smooth="yes"/>
      <point x="409" y="214"/>
      <point x="356" y="262"/>
      <point x="247" y="292" type="curve" smooth="yes"/>
      <point x="172" y="312"/>
      <point x="135" y="339"/>
      <point x="135" y="373" type="curve" smooth="yes"/>
      <point x="135" y="419"/>
      <point x="160" y="457"/>
      <point x="254" y="458" type="curve" smooth="yes"/>
      <point x="300" y="458"/>
      <point x="358" y="440"/>
      <point x="358" y="384" type="curve" smooth="yes"/>
      <point x="358" y="379"/>
      <point x="358" y="374"/>
      <point x="357" y="369" type="curve"/>
      <point x="406" y="379" type="line"/>
      <point x="407" y="385"/>
      <point x="407" y="391"/>
      <point x="407" y="397" type="curve" smooth="yes"/>
      <point x="407" y="486"/>
      <point x="311" y="505"/>
      <point x="254" y="505" type="curve" smooth="yes"/>
    </contour>
    <contour>
      <point x="156" y="602" type="line"/>
      <point x="197" y="567" type="line"/>
      <point x="359" y="679" type="line"/>
      <point x="306" y="724" type="line"/>
    </contour>
  </outline>
</glyph>
<glyph name="Scedilla" format="1">
  <advance width="599"/>
  <unicode hex="015E"/>
  <outline>
    <contour>
      <point x="281" y="-159"/>
      <point x="260" y="-149"/>
      <point x="255" y="-136" type="curve"/>
      <point x="225" y="-166" type="line"/>
      <point x="242" y="-188"/>
      <point x="268" y="-201"/>
      <point x="297" y="-201" type="curve" smooth="yes"/>
      <point x="347" y="-201"/>
      <point x="388" y="-160"/>
      <point x="388" y="-110" type="curve" smooth="yes"/>
      <point x="388" y="-55"/>
      <point x="346" y="-19"/>
      <point x="290" y="-19" type="curve" smooth="yes"/>
      <point x="286" y="-19" type="line"/>
      <point x="287" y="0" type="line"/>
      <point x="293" y="-1"/>
      <point x="299" y="-1"/>
      <point x="305" y="-1" type="curve" smooth="yes"/>
      <point x="406" y="-1"/>
      <point x="538" y="60"/>
      <point x="538" y="190" type="curve" smooth="yes"/>
      <point x="538" y="282"/>
      <point x="466" y="346"/>
      <point x="319" y="387" type="curve" smooth="yes"/>
      <point x="214" y="416"/>
      <point x="160" y="455"/>
      <point x="160" y="505" type="curve" smooth="yes"/>
      <point x="160" y="562"/>
      <point x="187" y="631"/>
      <point x="329" y="631" type="curve" smooth="yes"/>
      <point x="387" y="631"/>
      <point x="483" y="609"/>
      <point x="483" y="526" type="curve" smooth="yes"/>
      <point x="483" y="522"/>
      <point x="483" y="515"/>
      <point x="482" y="510" type="curve"/>
      <point x="534" y="521" type="line"/>
      <point x="535" y="527"/>
      <point x="535" y="533"/>
      <point x="535" y="539" type="curve" smooth="yes"/>
      <point x="535" y="649"/>
      <point x="419" y="681"/>
      <point x="329" y="681" type="curve" smooth="yes"/>
      <point x="228" y="681"/>
      <point x="96" y="649"/>
      <point x="96" y="507" type="curve" smooth="yes"/>
      <point x="96" y="410"/>
      <point x="209" y="356"/>
      <point x="306" y="330" type="curve" smooth="yes"/>
      <point x="464" y="287"/>
      <point x="475" y="228"/>
      <point x="475" y="197" type="curve" smooth="yes"/>
      <point x="475" y="105"/>
      <point x="398" y="52"/>
      <point x="304" y="52" type="curve" smooth="yes"/>
      <point x="232" y="52"/>
      <point x="148" y="86"/>
      <point x="121" y="162" type="curve"/>
      <point x="60" y="152" type="line"/>
      <point x="85" y="74"/>
      <point x="159" y="18"/>
      <point x="252" y="3" type="curve"/>
      <point x="236" y="-42" type="line"/>
      <point x="265" y="-72" type="line"/>
      <point x="270" y="-67"/>
      <point x="284" y="-61"/>
      <point x="297" y="-61" type="curve" smooth="yes"/>
      <point x="324" y="-61"/>
      <point x="346" y="-83"/>
      <point x="346" y="-110" type="curve" smooth="yes"/>
      <point x="346" y="-137"/>
      <point x="324" y="-159"/>
      <point x="297" y="-159" type="curve" smooth="yes"/>
    </contour>
  </outline>
</glyph>
<glyph name="scedilla" format="1">
  <advance width="460"/>
  <unicode hex="015F"/>
  <outline>
    <contour>
      <point x="225" y="-159"/>
      <point x="204" y="-149"/>
      <point x="199" y="-136" type="curve"/>
      <point x="169" y="-166" type="line"/>
      <point x="186" y="-188"/>
      <point x="212" y="-201"/>
      <point x="241" y="-201" type="curve" smooth="yes"/>
      <point x="291" y="-201"/>
      <point x="332" y="-160"/>
      <point x="332" y="-110" type="curve" smooth="yes"/>
      <point x="332" y="-55"/>
      <point x="290" y="-19"/>
      <point x="234" y="-19" type="curve" smooth="yes"/>
      <point x="230" y="-19" type="line"/>
      <point x="231" y="0" type="line"/>
      <point x="234" y="0" type="line" smooth="yes"/>
      <point x="291" y="0"/>
      <point x="409" y="31"/>
      <point x="409" y="145" type="curve" smooth="yes"/>
      <point x="409" y="214"/>
      <point x="356" y="262"/>
      <point x="247" y="292" type="curve" smooth="yes"/>
      <point x="172" y="312"/>
      <point x="135" y="339"/>
      <point x="135" y="373" type="curve" smooth="yes"/>
      <point x="135" y="419"/>
      <point x="160" y="457"/>
      <point x="254" y="458" type="curve" smooth="yes"/>
      <point x="300" y="458"/>
      <point x="358" y="440"/>
      <point x="358" y="384" type="curve" smooth="yes"/>
      <point x="358" y="379"/>
      <point x="358" y="374"/>
      <point x="357" y="369" type="curve"/>
      <point x="406" y="379" type="line"/>
      <point x="407" y="385"/>
      <point x="407" y="391"/>
      <point x="407" y="397" type="curve" smooth="yes"/>
      <point x="407" y="486"/>
      <point x="311" y="505"/>
      <point x="254" y="505" type="curve" smooth="yes"/>
      <point x="180" y="505"/>
      <point x="78" y="483"/>
      <point x="78" y="376" type="curve" smooth="yes"/>
      <point x="78" y="299"/>
      <point x="161" y="259"/>
      <point x="234" y="240" type="curve" smooth="yes"/>
      <point x="300" y="222"/>
      <point x="353" y="197"/>
      <point x="353" y="144" type="curve" smooth="yes"/>
      <point x="353" y="88"/>
      <point x="297" y="50"/>
      <point x="234" y="50" type="curve" smooth="yes"/>
      <point x="178" y="50"/>
      <point x="121" y="77"/>
      <point x="105" y="130" type="curve"/>
      <point x="50" y="121" type="line"/>
      <point x="68" y="55"/>
      <point x="128" y="14"/>
      <point x="196" y="3" type="curve"/>
      <point x="180" y="-42" type="line"/>
      <point x="209" y="-72" type="line"/>
      <point x="214" y="-67"/>
      <point x="228" y="-61"/>
      <point x="241" y="-61" type="curve" smooth="yes"/>
      <point x="268" y="-61"/>
      <point x="290" y="-83"/>
      <point x="290" y="-110" type="curve" smooth="yes"/>
      <point x="290" y="-137"/>
      <point x="268" y="-159"/>
      <point x="241" y="-159" type="curve" smooth="yes"/>
    </contour>
  </outline>
</glyph>
<glyph name="uni0162" format="1">
  <advance width="522"/>
  <unicode hex="0162"/>
  <outline>
    <contour>
      <point x="225" y="0" type="line"/>
      <point x="282" y="10" type="line"/>
      <point x="282" y="625" type="line"/>
      <point x="512" y="625" type="line"/>
      <point x="512" y="681" type="line"/>
      <point x="10" y="681" type="line"/>
      <point x="10" y="625" type="line"/>
      <point x="225" y="625" type="line"/>
    </contour>
    <contour>
      <point x="259" y="-19" type="line"/>
      <point x="202" y="-78" type="line"/>
      <point x="241" y="-100" type="line"/>
      <point x="187" y="-196" type="line"/>
      <point x="236" y="-224" type="line"/>
      <point x="329" y="-58" type="line"/>
    </contour>
  </outline>
</glyph>
<glyph name="uni0163" format="1">
  <advance width="373"/>
  <unicode hex="0163"/>
  <outline>
    <contour>
      <point x="353" y="502" type="line"/>
      <point x="215" y="502" type="line"/>
      <point x="215" y="671" type="line"/>
      <point x="158" y="661" type="line"/>
      <point x="158" y="502" type="line"/>
      <point x="20" y="502" type="line"/>
      <point x="20" y="446" type="line"/>
      <point x="158" y="446" type="line"/>
      <point x="158" y="0" type="line"/>
      <point x="215" y="10" type="line"/>
      <point x="215" y="446" type="line"/>
      <point x="353" y="446" type="line"/>
    </contour>
    <contour>
      <point x="189" y="-19" type="line"/>
      <point x="132" y="-78" type="line"/>
      <point x="171" y="-100" type="line"/>
      <point x="117" y="-196" type="line"/>
      <point x="166" y="-224" type="line"/>
      <point x="259" y="-58" type="line"/>
    </contour>
  </outline>
</glyph>
<glyph name="uring" format="1">
  <advance width="515"/>
  <unicode hex="016F"/>
  <outline>
    <contour>
      <point x="337" y="563"/>
      <point x="405" y="610"/>
      <point x="405" y="680" type="curve" smooth="yes"/>
      <point x="405" y="747"/>
      <point x="344" y="782"/>
      <point x="279" y="782" type="curve"/>
      <point x="218" y="778"/>
      <point x="156" y="729"/>
      <point x="156" y="666" type="curve" smooth="yes"/>
      <point x="156" y="615"/>
      <point x="201" y="563"/>
      <point x="270" y="563" type="curve" smooth="yes"/>
    </contour>
    <contour>
      <point x="326" y="736"/>
      <point x="363" y="711"/>
      <point x="363" y="677" type="curve" smooth="yes"/>
      <point x="363" y="632"/>
      <point x="307" y="610"/>
      <point x="272" y="610" type="curve" smooth="yes"/>
      <point x="238" y="610"/>
      <point x="198" y="628"/>
      <point x="198" y="666" type="curve" smooth="yes"/>
      <point x="198" y="697"/>
      <point x="237" y="736"/>
      <point x="288" y="736" type="curve" smooth="yes"/>
    </contour>
    <contour>
      <point x="119" y="374"/>
      <point x="133" y="488"/>
      <point x="136" y="504" type="curve"/>
      <point x="81" y="494" type="line"/>
      <point x="68" y="423"/>
      <point x="65" y="326"/>
      <point x="65" y="283" type="curve" smooth="yes"/>
      <point x="65" y="143"/>
      <point x="66" y="-6"/>
      <point x="217" y="-6" type="curve" smooth="yes"/>
      <point x="295" y="-6"/>
      <point x="363" y="36"/>
      <point x="388" y="74" type="curve"/>
      <point x="388" y="0" type="line"/>
      <point x="450" y="10" type="line"/>
      <point x="450" y="504" type="line"/>
      <point x="397" y="494" type="line"/>
      <point x="392" y="159" type="line" smooth="yes"/>
      <point x="392" y="138"/>
      <point x="386" y="124"/>
      <point x="379" y="116" type="curve" smooth="yes"/>
      <point x="358" y="92"/>
      <point x="287" y="43"/>
      <point x="218" y="43" type="curve" smooth="yes"/>
      <point x="116" y="43"/>
      <point x="120" y="168"/>
      <point x="119" y="289" type="curve"/>
    </contour>
  </outline>
</glyph>
<glyph name="Zcaron" format="1">
  <advance width="621"/>
  <unicode hex="017D"/>
  <outline>
    <contour>
      <point x="73" y="0" type="line"/>
      <point x="551" y="0" type="line"/>
      <point x="562" y="61" type="line"/>
      <point x="118" y="61" type="line"/>
      <point x="571" y="626" type="line"/>
      <point x="546" y="681" type="line"/>
      <point x="90" y="681" type="line"/>
      <point x="79" y="620" type="line"/>
      <point x="501" y="620" type="line"/>
      <point x="48" y="55" type="line"/>
    </contour>
    <contour>
      <point x="425" y="881" type="line"/>
      <point x="311" y="792" type="line"/>
      <point x="215" y="880" type="line"/>
      <point x="179" y="840" type="line"/>
      <point x="308" y="718" type="line"/>
      <point x="458" y="838" type="line"/>
    </contour>
  </outline>
</glyph>
<glyph name="caron" format="1">
  <advance width="500"/>
  <unicode hex="02C7"/>
  <outline>
    <contour>
      <point x="356" y="712" type="line"/>
      <point x="242" y="623" type="line"/>
      <point x="146" y="711" type="line"/>
      <point x="110" y="671" type="line"/>
      <point x="239" y="549" type="line"/>
      <point x="389" y="669" type="line"/>
    </contour>
  </outline>
</glyph>
<glyph name="ogonek" format="1">
  <advance width="500"/>
  <unicode hex="02DB"/>
  <outline>
    <contour>
      <point x="326" y="-127" type="line"/>
      <point x="303" y="-145"/>
      <point x="284" y="-158"/>
      <point x="252" y="-158" type="curve" smooth="yes"/>
      <point x="218" y="-158"/>
      <point x="191" y="-135"/>
      <point x="191" y="-101" type="curve" smooth="yes"/>
      <point x="191" y="-57"/>
      <point x="229" y="-30"/>
      <point x="254" y="-11" type="curve" smooth="yes"/>
      <point x="285" y="12" type="line"/>
      <point x="262" y="43" type="line"/>
      <point x="246" y="34" type="line" smooth="yes"/>
      <point x="203" y="10"/>
      <point x="149" y="-40"/>
      <point x="149" y="-100" type="curve" smooth="yes"/>
      <point x="149" y="-158"/>
      <point x="193" y="-201"/>
      <point x="252" y="-201" type="curve" smooth="yes"/>
      <point x="293" y="-201"/>
      <point x="333" y="-180"/>
      <point x="350" y="-159" type="curve"/>
    </contour>
  </outline>
</glyph>
<glyph name="endash" format="1">
  <advance width="596"/>
  <unicode hex="2013"/>
  <outline>
    <contour>
      <point x="516" y="222" type="line"/>
      <point x="527" y="276" type="line"/>
      <point x="81" y="276" type="line"/>
      <point x="71" y="222" type="line"/>
    </contour>
  </outline>
</glyph>
<glyph name="quoteright" format="1">
  <advance width="182"/>
  <unicode hex="2019"/>
  <outline>
    <contour>
      <point x="92" y="749" type="line"/>
      <point x="35" y="690" type="line"/>
      <point x="74" y="668" type="line"/>
      <point x="20" y="572" type="line"/>
      <point x="69" y="544" type="line"/>
      <point x="162" y="710" type="line"/>
    </contour>
  </outline>
</glyph>
<glyph name="guilsinglleft" format="1">
  <advance width="404"/>
  <unicode hex="2039"/>
  <outline>
    <contour>
      <point x="277" y="64" type="line"/>
      <point x="313" y="104" type="line"/>
      <point x="153" y="249" type="line"/>
      <point x="330" y="400" type="line"/>
      <point x="295" y="440" type="line"/>
      <point x="72" y="250" type="line"/>
    </contour>
  </outline>
</glyph>
